<?xml version="1.0" encoding="UTF-8" standalone="no"?>
<svg
   xmlns:dc="http://purl.org/dc/elements/1.1/"
   xmlns:cc="http://creativecommons.org/ns#"
   xmlns:rdf="http://www.w3.org/1999/02/22-rdf-syntax-ns#"
   xmlns:svg="http://www.w3.org/2000/svg"
   xmlns="http://www.w3.org/2000/svg"
   viewBox="0 0 188.97333 188.97333"
   height="188.97333"
   width="188.97333"
   xml:space="preserve"
   id="svg2"
   version="1.1"><metadata
     id="metadata8"><rdf:RDF><cc:Work
         rdf:about=""><dc:format>image/svg+xml</dc:format><dc:type
           rdf:resource="http://purl.org/dc/dcmitype/StillImage" /></cc:Work></rdf:RDF></metadata><defs
     id="defs6"><clipPath
       id="clipPath30"
       clipPathUnits="userSpaceOnUse"><path
         id="path28"
         d="M 0,141.73 H 141.73 V 0 H 0 Z" /></clipPath></defs><g
     transform="matrix(1.3333333,0,0,-1.3333333,0,188.97333)"
     id="g10"><text
       id="text14"
       style="font-variant:normal;font-weight:bold;font-stretch:normal;font-size:36.99409866px;font-family:'Agency FB';-inkscape-font-specification:AgencyFB-Bold;writing-mode:lr-tb;fill:#000000;fill-opacity:1;fill-rule:nonzero;stroke:none"
       transform="matrix(0.94339638,0,0,-1,6.042,63.8193)"><tspan
         id="tspan12"
         y="0"
         x="0 17.720175 34.959423 42.728184">NCIE</tspan></text>
<text
       id="text22"
       style="font-variant:normal;font-weight:normal;font-stretch:normal;font-size:4.80940008px;font-family:Constantia;-inkscape-font-specification:Constantia;writing-mode:lr-tb;fill:#000000;fill-opacity:1;fill-rule:nonzero;stroke:none"
       transform="matrix(1,0,0,-1,6.042,58.0479)"><tspan
         id="tspan16"
         y="0"
         x="0 3.5320234 6.1339087 8.8608389 11.342489 12.43278 15.15971 17.345583 18.552742 21.683661 23.456406 25.760109 28.068621 29.766338 31.081709 33.404648 34.765709 37.492641 39.801151 42.52808 43.664543 46.357807 48.666317 50.42704 52.618683 53.825844 55.177284">Nodo de Creatividad para la</tspan><tspan
         id="tspan18"
         y="5.7712798"
         x="0 1.635196 4.4342666 7.2333374 9.7626009 12.037929 14.34644 16.563574 17.924633 20.52652 23.254892 24.368267 26.895126 29.19883 31.415962 34.215034 36.814514 38.165955 40.765438 43.208611 44.569672 46.786804 48.977966 50.045654 52.24403 53.333359 55.637062">Innovación Tecnológica y el</tspan><tspan
         id="tspan20"
         y="11.54256"
         x="0 2.7918568 6.9567971 9.6500607 11.422806 13.726508 16.525579 19.25251 20.613569 24.778509 26.13957 28.443272 31.242344 32.868881">Emprendimiento</tspan></text>
<g
       id="g24"><g
         clip-path="url(#clipPath30)"
         id="g26"><g
           transform="translate(102.2705,86.7041)"
           id="g32"><path
             id="path34"
             style="fill:#29abe2;fill-opacity:1;fill-rule:nonzero;stroke:none"
             d="M 0,0 C -0.112,-0.14 -0.107,-0.327 0.041,-0.442 0.16,-0.535 0.332,-0.531 0.446,-0.417 0.58,-0.282 0.546,-0.12 0.449,0.029 0.288,0.122 0.118,0.148 0,0" /></g><g
           transform="translate(113.2715,70.7984)"
           id="g36"><path
             id="path38"
             style="fill:none;stroke:#087c7d;stroke-width:2;stroke-linecap:butt;stroke-linejoin:miter;stroke-miterlimit:10;stroke-dasharray:none;stroke-opacity:1"
             d="M 0,0 H -48.42" /></g><g
           transform="translate(56.7603,107.0943)"
           id="g40"><path
             id="path42"
             style="fill:none;stroke:#087c7d;stroke-width:2;stroke-linecap:butt;stroke-linejoin:miter;stroke-miterlimit:10;stroke-dasharray:none;stroke-opacity:1"
             d="m 0,0 h -16.031 l -3.775,-3.774 v -8.944" /></g><g
           transform="translate(83.8574,94.3765)"
           id="g44"><path
             id="path46"
             style="fill:none;stroke:#087c7d;stroke-width:2;stroke-linecap:butt;stroke-linejoin:miter;stroke-miterlimit:10;stroke-dasharray:none;stroke-opacity:1"
             d="m 0,0 h -2.824 l -4.437,-4.437 v -8.918 l -3.18,-3.18 H -21.66" /></g><g
           transform="translate(56.4893,34.5025)"
           id="g48"><path
             id="path50"
             style="fill:none;stroke:#087c7d;stroke-width:2;stroke-linecap:butt;stroke-linejoin:miter;stroke-miterlimit:10;stroke-dasharray:none;stroke-opacity:1"
             d="m 0,0 h -16.031 l -3.775,3.774 v 4.604" /></g><g
           transform="translate(83.5869,47.2202)"
           id="g52"><path
             id="path54"
             style="fill:none;stroke:#087c7d;stroke-width:2;stroke-linecap:butt;stroke-linejoin:miter;stroke-miterlimit:10;stroke-dasharray:none;stroke-opacity:1"
             d="m 0,0 h -2.825 l -4.437,4.437 v 8.918 l -3.18,3.18 H -21.66" /></g><g
           transform="translate(114.8086,80.1372)"
           id="g56"><path
             id="path58"
             style="fill:#29abe2;fill-opacity:1;fill-rule:nonzero;stroke:none"
             d="M 0,0 C -0.119,-0.116 -0.113,-0.282 -0.025,-0.405 0.09,-0.564 0.276,-0.551 0.414,-0.449 0.571,-0.333 0.53,-0.161 0.437,0.02 0.298,0.085 0.14,0.136 0,0" /></g><g
           transform="translate(118.4834,80.958)"
           id="g60"><path
             id="path62"
             style="fill:#29abe2;fill-opacity:1;fill-rule:nonzero;stroke:none"
             d="m 0,0 c -0.158,-0.112 -0.155,-0.298 -0.053,-0.439 0.115,-0.16 0.287,-0.116 0.45,-0.04 0.114,0.146 0.124,0.309 0.005,0.446 C 0.293,0.093 0.124,0.087 0,0" /></g><g
           transform="translate(131.8281,74.7193)"
           id="g64"><path
             id="path66"
             style="fill:#29abe2;fill-opacity:1;fill-rule:nonzero;stroke:none"
             d="M 0,0 C 0.109,0.103 0.212,0.21 0.317,0.316 0.711,0.769 1.38,0.845 1.73,1.375 1.863,1.575 2.021,1.712 1.998,2 1.965,2.44 2.23,2.711 2.674,2.71 3.089,2.709 3.342,2.455 3.339,2.04 3.336,1.595 3.065,1.373 2.623,1.355 2.238,1.341 1.395,0.645 1.315,0.243 1.224,-0.222 0.838,-0.441 0.522,-0.683 0.309,-0.848 0.183,-0.491 0.017,-0.371 -0.132,-0.264 -0.14,-0.132 0,0 m 2.363,-2.067 c 0.264,0.191 0.374,0.586 0.823,0.552 0.147,-0.011 0.259,0.212 0.237,0.44 -0.046,0.468 0.189,0.763 0.661,0.777 0.414,0.013 0.677,-0.241 0.679,-0.654 C 4.766,-1.423 4.481,-1.665 4.01,-1.644 3.699,-1.63 3.609,-1.727 3.535,-2.058 3.452,-2.423 3.062,-2.658 2.759,-2.898 2.562,-3.056 2.487,-2.792 2.366,-2.72 2.022,-2.499 2.084,-2.271 2.363,-2.067 M -4.624,5.2 C -4.85,5.098 -4.928,4.567 -5.356,4.978 c -0.3,0.287 -0.344,0.488 -0.007,0.748 0.261,0.203 0.431,0.481 0.827,0.558 0.276,0.054 0.535,0.362 0.498,0.779 -0.041,0.444 -0.004,0.895 -0.011,1.342 -0.008,0.539 -0.305,0.845 -0.838,0.864 -0.442,0.017 -0.714,0.236 -0.717,0.682 -0.003,0.415 0.248,0.671 0.663,0.673 0.443,0.003 0.702,-0.266 0.679,-0.707 C -4.274,9.663 -4.223,9.479 -4.027,9.338 -3.656,9.069 -3.55,8.709 -3.593,8.265 -3.625,7.933 -3.623,7.592 -3.594,7.259 -3.553,6.804 -3.648,6.42 -4.015,6.12 -4.31,5.878 -4.198,5.367 -4.624,5.2 M -9.972,2.814 c -0.262,-0.253 -0.39,-0.229 -0.667,-0.002 -0.576,0.473 -0.634,1.331 -1.212,1.598 -0.53,0.461 -0.804,0.998 -1.515,0.955 -0.319,-0.019 -0.52,0.345 -0.468,0.71 0.055,0.382 0.297,0.6 0.687,0.595 0.364,-0.004 0.671,-0.229 0.636,-0.566 -0.05,-0.483 0.276,-0.679 0.499,-0.985 0.532,-0.727 1.39,-1.037 2.014,-1.643 0.245,-0.238 0.308,-0.389 0.026,-0.662 m -1.093,-1.102 c -0.343,-0.356 -0.518,-0.19 -0.741,0.074 -0.023,0.028 -0.052,0.053 -0.079,0.079 -0.566,1.149 -1.598,1.889 -2.443,2.794 -0.171,0.183 -0.337,0.292 -0.622,0.272 -0.441,-0.032 -0.709,0.234 -0.705,0.679 0.004,0.415 0.259,0.666 0.675,0.661 0.444,-0.004 0.698,-0.279 0.667,-0.718 -0.017,-0.261 0.072,-0.415 0.24,-0.58 0.573,-0.561 1.151,-1.118 1.698,-1.703 0.351,-0.375 0.916,-0.405 1.226,-0.851 0.171,-0.246 0.414,-0.364 0.084,-0.707 M -12.14,-8.99 c -0.59,-0.653 -1.548,-0.845 -1.903,-1.538 -0.344,-0.344 -0.575,-0.587 -0.82,-0.817 -0.209,-0.196 -0.35,-0.381 -0.325,-0.715 0.03,-0.409 -0.247,-0.662 -0.663,-0.664 -0.416,-0.002 -0.668,0.244 -0.675,0.661 -0.008,0.416 0.241,0.708 0.648,0.675 0.361,-0.028 0.548,0.143 0.758,0.357 0.495,0.507 1.028,0.98 1.48,1.522 0.302,0.363 0.462,0.825 0.832,1.165 0.298,0.274 0.421,0.129 0.623,-0.066 0.2,-0.194 0.285,-0.317 0.045,-0.58 m -5.524,-1.386 c -0.369,0.013 -0.763,0.12 -0.707,-0.534 0.031,-0.361 -0.316,-0.582 -0.705,-0.547 -0.386,0.034 -0.612,0.274 -0.617,0.664 -0.006,0.39 0.224,0.595 0.597,0.691 0.83,0.214 1.674,0.175 2.516,0.177 0.111,0 0.268,-0.025 0.325,0.035 0.596,0.628 1.394,1.068 1.735,1.936 0.152,0.383 0.501,0.66 0.836,0.873 0.205,0.13 0.334,-0.221 0.504,-0.347 0.152,-0.113 0.156,-0.251 0,-0.364 -0.324,-0.237 -0.515,-0.59 -0.97,-0.739 -0.394,-0.129 -0.671,-0.615 -1,-0.945 -0.576,-1.034 -1.556,-0.933 -2.514,-0.9 m 3.209,8.705 c -0.259,-0.213 -0.375,-0.176 -0.582,0.033 -0.663,0.671 -1.056,1.555 -1.791,2.184 -0.389,0.332 -0.763,0.311 -1.182,0.312 -0.201,0 -0.156,-0.153 -0.172,-0.277 -0.055,-0.441 -0.313,-0.683 -0.755,-0.638 -0.412,0.043 -0.639,0.321 -0.593,0.735 0.048,0.44 0.358,0.547 0.778,0.628 1.292,0.25 2.234,-0.245 2.955,-1.262 0.312,-0.439 0.936,-0.398 1.198,-0.852 0.284,-0.257 0.628,-0.463 0.144,-0.863 M 3.79,4.989 C 2.171,5.229 0.903,4.754 -0.14,3.432 -0.572,2.884 -0.872,2.236 -1.397,1.754 -1.662,1.511 -1.813,1.429 -2.111,1.727 -2.415,2.029 -2.3,2.226 -2.042,2.387 -0.783,3.174 0.17,4.296 1.221,5.312 1.377,5.461 1.568,5.424 1.75,5.426 2.458,5.43 3.167,5.417 3.875,5.432 4.175,5.439 4.397,5.356 4.614,5.136 5.398,4.338 6.194,3.551 6.987,2.762 V 3.866 L 0.521,7.6 C 0.498,6.259 0.446,6.175 -0.729,4.969 -1.125,4.574 -1.623,4.235 -1.883,3.765 -2.087,3.395 -2.326,3.09 -2.595,2.784 -2.814,2.532 -2.971,2.59 -3.179,2.806 c -0.204,0.213 -0.352,0.37 -0.05,0.624 0.761,0.641 1.542,1.266 2.309,1.893 0.894,0.729 1.048,1.585 1.003,2.53 l -1.802,1.04 C -1.573,8.62 -1.565,8.297 -1.522,7.962 -1.379,6.84 -1.698,5.955 -2.634,5.32 -3.082,5.017 -3.037,4.389 -3.498,4.104 -3.734,3.974 -3.842,3.451 -4.277,3.896 c -0.275,0.282 -0.281,0.44 0.002,0.711 0.587,0.564 1.377,0.859 1.904,1.517 0.25,0.311 0.42,0.579 0.388,0.984 -0.032,0.389 0,0.783 -0.008,1.175 -0.011,0.498 -0.325,0.812 -0.818,0.831 -0.468,0.018 -0.777,0.304 -0.742,0.715 0.003,0.04 0.018,0.07 0.025,0.107 L -6.37,11.578 -9.635,9.693 C -9.658,9.586 -9.704,9.479 -9.8,9.374 -9.994,9.16 -9.965,8.955 -9.963,8.711 -9.957,7.744 -9.645,6.944 -8.812,6.386 -8.522,6.192 -8.102,6.208 -7.949,5.823 -7.576,5.563 -7.361,5.311 -7.85,4.938 -8.073,4.768 -8.174,4.8 -8.349,4.971 c -0.672,0.662 -1.071,1.535 -1.773,2.191 -0.333,0.311 -0.184,0.958 -0.261,1.452 -0.031,0.204 -0.1,0.367 -0.226,0.516 l -0.893,-0.515 c 0.077,-0.528 0.138,-1.057 0.171,-1.591 0.017,-0.277 0.136,-0.472 0.311,-0.682 0.591,-0.705 1.374,-1.168 2.083,-1.723 0.254,-0.2 0.41,-0.373 0.079,-0.697 -0.306,-0.299 -0.443,-0.194 -0.705,0.037 -0.565,0.498 -0.663,1.353 -1.358,1.725 -1.037,0.578 -0.833,1.618 -0.96,2.53 -0.008,0.057 -0.012,0.116 -0.015,0.174 l -4.528,-2.614 c 0.189,-0.107 0.306,-0.292 0.284,-0.549 -0.031,-0.364 0.148,-0.547 0.359,-0.757 0.714,-0.71 1.459,-1.393 2.124,-2.146 0.398,-0.45 1.025,-0.518 1.392,-1.001 0.205,-0.271 0.412,-0.407 0.06,-0.749 -0.346,-0.334 -0.495,-0.127 -0.7,0.098 -0.038,0.041 -0.079,0.08 -0.231,0.231 -0.62,1.294 -1.941,2.17 -2.965,3.314 -0.192,0.215 -0.382,0.347 -0.714,0.323 -0.398,-0.028 -0.642,0.235 -0.656,0.631 L -19.728,3.866 V 2.612 c 0.055,0.026 0.112,0.048 0.155,0.11 0.3,0.426 0.726,0.452 1.211,0.512 1.187,0.146 2.102,-0.209 2.785,-1.183 0.032,-0.045 0.078,-0.079 0.118,-0.119 0.005,0.005 0.01,0.01 0.016,0.016 0.381,-0.383 0.712,-0.852 1.162,-1.119 0.373,-0.222 0.705,-0.458 1.027,-0.741 0.321,-0.281 0.101,-0.419 -0.074,-0.617 -0.196,-0.222 -0.391,-0.316 -0.568,-0.02 -0.647,1.08 -1.598,1.889 -2.44,2.798 -0.36,0.389 -0.735,0.579 -1.265,0.521 -0.349,-0.039 -0.708,10e-4 -1.061,-0.011 -0.452,-0.015 -0.769,-0.348 -0.786,-0.806 -0.01,-0.277 -0.117,-0.487 -0.28,-0.616 v -1.793 c 0.109,-0.08 0.252,-0.123 0.437,-0.129 0.224,-0.008 0.449,-0.023 0.671,0.001 0.798,0.089 1.469,-0.065 2.03,-0.726 0.27,-0.317 0.763,-0.411 1.073,-0.761 0.245,-0.275 0.239,-0.408 -0.007,-0.668 -0.276,-0.29 -0.452,-0.229 -0.659,0.037 -0.045,0.058 -0.104,0.106 -0.19,0.192 -0.425,0.228 -0.356,0.842 -0.779,1.151 -0.249,0.181 -0.452,0.35 -0.784,0.328 -0.408,-0.026 -0.82,0.008 -1.229,-0.009 -0.204,-0.008 -0.395,0.006 -0.563,0.077 v -6.054 c 0.154,0.034 0.316,0.047 0.496,0.023 0.165,-0.023 0.336,0.013 0.503,-0.007 1.054,-0.123 1.656,0.378 2.027,1.337 0.123,0.318 0.472,0.585 0.776,0.785 0.236,0.153 0.343,-0.194 0.508,-0.312 0.133,-0.095 0.204,-0.22 0.045,-0.366 -0.109,-0.101 -0.212,-0.211 -0.317,-0.316 -0.785,-0.287 -1.263,-0.954 -1.846,-1.49 -0.122,-0.113 -0.282,-0.081 -0.429,-0.082 -0.447,-0.003 -0.894,0 -1.342,-10e-4 -0.154,-0.001 -0.291,-0.031 -0.421,-0.072 v -0.839 c 0.022,0.029 0.035,0.059 0.061,0.087 0.271,0.289 0.582,0.314 0.899,0.081 0.699,-0.513 1.568,-0.402 2.233,0.151 0.604,0.503 0.866,1.242 1.401,1.781 0.24,0.241 0.398,0.431 0.743,0.073 0.33,-0.341 0.142,-0.494 -0.091,-0.7 -0.042,-0.037 -0.08,-0.079 -0.12,-0.118 -0.919,-0.396 -1.487,-1.208 -2.207,-1.842 -0.27,-0.238 -0.648,-0.083 -0.976,-0.101 -0.365,-0.022 -0.708,0.02 -1.012,-0.318 -0.254,-0.282 -0.626,-0.201 -0.885,0.093 -0.02,0.024 -0.028,0.048 -0.046,0.071 v -2.459 l 3.544,-2.047 c 0.115,0.115 0.276,0.176 0.477,0.163 0.332,-0.024 0.514,0.116 0.716,0.321 0.719,0.73 1.417,1.487 2.184,2.165 0.451,0.398 0.505,1.037 1.003,1.391 0.242,0.171 0.362,0.422 0.706,0.088 0.354,-0.341 0.199,-0.517 -0.07,-0.74 -0.043,-0.036 -0.079,-0.079 -0.23,-0.23 -1.281,-0.608 -2.146,-1.913 -3.274,-2.927 -0.221,-0.199 -0.391,-0.392 -0.36,-0.756 0.005,-0.048 -0.01,-0.086 -0.015,-0.13 l 2.924,-1.688 c 0,0.01 -0.005,0.015 -0.005,0.026 0.023,1.005 0.006,2.012 0.011,3.018 0.001,0.164 -0.024,0.408 0.068,0.478 0.667,0.511 0.889,1.361 1.509,1.909 0.31,0.276 0.408,0.025 0.574,-0.121 0.175,-0.155 0.287,-0.264 0.08,-0.538 -0.347,-0.457 -0.893,-0.585 -1.302,-0.928 -0.351,-0.292 -0.52,-0.621 -0.496,-1.104 0.044,-0.892 0.02,-1.788 0.008,-2.682 -0.002,-0.132 0.018,-0.247 0.062,-0.352 l 5.244,-3.028 0.15,0.087 c -0.085,0.129 -0.18,0.249 -0.302,0.366 -0.243,0.232 -0.5,0.455 -0.707,0.715 -0.296,0.373 -0.663,0.528 -1.122,0.466 -0.352,-0.048 -0.612,0.085 -0.821,0.357 -0.045,0.058 -0.098,0.116 -0.158,0.158 -1.171,0.809 -1.589,1.914 -1.382,3.314 0.054,0.365 0.107,0.66 0.373,0.937 0.342,0.355 0.454,0.87 0.861,1.214 0.319,0.269 0.426,0.088 0.624,-0.086 0.223,-0.196 0.303,-0.373 0.021,-0.571 -0.3,-0.208 -0.437,-0.587 -0.904,-0.645 -0.258,-0.031 -0.579,-0.345 -0.512,-0.765 0.015,-0.09 0.017,-0.188 0,-0.279 -0.212,-1.178 0.207,-2.069 1.147,-2.799 0.331,-0.256 0.62,-0.455 1.035,-0.404 0.365,0.044 0.633,-0.09 0.88,-0.361 0.374,-0.415 0.781,-0.8 1.182,-1.191 0.066,-0.064 0.129,-0.128 0.19,-0.193 l 0.807,0.467 c -0.546,0.607 -1.176,1.124 -1.699,1.747 -0.134,0.158 -0.286,0.312 -0.52,0.263 -0.633,-0.134 -0.979,0.285 -1.367,0.665 -0.403,0.397 -0.795,0.751 -0.687,1.416 0.12,0.746 0.516,1.296 1.076,1.74 0.267,0.21 0.351,-0.161 0.513,-0.269 0.141,-0.094 0.273,-0.255 0.061,-0.396 -0.332,-0.221 -0.435,-0.725 -0.973,-0.711 -0.236,0.006 -0.358,-0.797 -0.119,-1.042 0.45,-0.459 0.8,-1.123 1.629,-0.952 0.178,0.037 0.323,-0.05 0.44,-0.188 0.072,-0.085 0.164,-0.153 0.235,-0.238 0.554,-0.665 1.206,-1.224 1.869,-1.771 l 1.097,0.633 c -0.449,0.63 -0.814,1.305 -0.613,2.213 0.134,0.613 0.087,1.238 -0.799,1.399 -0.27,0.05 -0.52,0.42 -0.7,0.695 -0.211,0.32 0.194,0.41 0.328,0.593 0.115,0.157 0.21,0.108 0.383,-0.032 0.541,-0.435 0.664,-1.159 1.182,-1.601 0.084,-0.072 0.068,-0.28 0.07,-0.424 0.008,-0.503 10e-4,-1.006 0.003,-1.509 0.002,-0.482 0.239,-0.844 0.652,-1.042 l 1.045,0.604 c -0.526,0.707 -1.11,1.399 -0.91,2.468 0.158,0.836 -0.068,0.939 -0.873,1.309 -0.317,0.145 -0.596,0.462 -0.788,0.767 -0.189,0.302 0.222,0.4 0.364,0.585 0.138,0.182 0.228,0.043 0.377,-0.072 0.587,-0.459 0.777,-1.199 1.287,-1.727 0.331,-0.344 0.139,-0.973 0.093,-1.459 -0.056,-0.601 0.205,-1.035 0.665,-1.233 0.162,-0.07 0.296,-0.169 0.435,-0.262 l 0.892,0.513 c -0.014,0.02 -0.032,0.036 -0.044,0.056 -0.527,0.807 -1.416,1.496 -1.128,2.687 0.101,0.419 -0.434,1.19 -0.842,1.231 -0.515,0.053 -0.69,0.46 -0.958,0.747 -0.272,0.294 0.157,0.41 0.289,0.591 0.137,0.186 0.237,0.132 0.422,-0.036 0.596,-0.545 0.824,-1.359 1.459,-1.882 0.251,-0.207 0.106,-0.645 0.087,-0.97 -0.05,-0.792 0.175,-1.359 1.033,-1.529 0.094,-0.019 0.168,-0.142 0.247,-0.221 0.073,-0.073 0.146,-0.146 0.219,-0.221 l 0.765,0.443 c -0.119,0.134 -0.228,0.275 -0.321,0.426 -0.471,0.774 -1.412,1.372 -1.131,2.514 0.077,0.313 -0.673,1.222 -1.032,1.259 -0.503,0.053 -0.693,0.459 -0.943,0.758 -0.241,0.285 0.19,0.401 0.324,0.585 0.112,0.155 0.214,0.132 0.383,-0.033 0.623,-0.613 0.922,-1.47 1.617,-2.036 0.28,-0.227 0.095,-0.674 0.108,-1.02 0.024,-0.584 0.337,-1.006 0.93,-1.154 0.163,-0.041 0.246,-0.158 0.348,-0.257 0.186,-0.186 0.37,-0.372 0.555,-0.559 l 0.758,0.439 c -0.251,0.236 -0.483,0.483 -0.641,0.771 -0.414,0.749 -1.29,1.238 -1.18,2.343 0.057,0.569 -0.652,1.031 -1.193,1.261 -0.425,0.181 -0.681,0.483 -0.916,0.791 -0.21,0.276 0.218,0.395 0.36,0.581 0.139,0.182 0.236,0.065 0.375,-0.078 0.642,-0.664 0.99,-1.564 1.749,-2.135 0.237,-0.178 0.116,-0.489 0.123,-0.741 0.017,-0.577 0.34,-0.999 0.931,-1.15 0.162,-0.041 0.245,-0.158 0.346,-0.259 0.3,-0.297 0.596,-0.597 0.893,-0.896 l 0.78,0.45 c -0.39,0.339 -0.775,0.679 -1.003,1.104 -0.378,0.703 -1.138,1.146 -1.199,2.116 -0.034,0.554 -0.733,1.083 -1.325,1.325 -0.433,0.177 -0.687,0.481 -0.921,0.79 -0.212,0.278 0.218,0.396 0.359,0.581 0.141,0.185 0.241,0.069 0.375,-0.08 0.664,-0.742 1.103,-1.673 1.917,-2.29 0.116,-0.089 0.121,-0.23 0.114,-0.359 -0.037,-0.7 0.341,-1.058 0.974,-1.233 0.113,-0.031 0.209,-0.147 0.3,-0.238 0.413,-0.411 0.823,-0.826 1.233,-1.239 l 1.751,1.01 v 1.047 c -0.36,0.36 -0.718,0.721 -1.085,1.075 -0.298,0.29 -0.295,0.748 -0.648,1.027 -0.264,0.207 -0.489,0.365 -0.836,0.335 -0.295,-0.027 -0.597,0.015 -0.893,-0.01 -0.454,-0.04 -0.811,0.07 -1.133,0.428 -0.318,0.351 -0.835,0.431 -1.171,0.818 -0.295,0.338 -0.148,0.475 0.076,0.712 0.249,0.266 0.384,0.22 0.584,-0.057 0.216,-0.296 0.495,-0.514 0.623,-0.909 0.112,-0.344 0.455,-0.629 0.93,-0.544 0.18,0.032 0.374,-0.015 0.556,0.008 0.693,0.092 1.162,-0.23 1.729,-0.622 0.458,-0.317 0.871,-0.674 1.268,-1.044 v 1.405 C 6.785,-7.568 6.629,-7.209 6.318,-6.95 6.09,-6.76 5.887,-6.632 5.582,-6.65 5.211,-6.673 4.836,-6.633 4.466,-6.659 3.53,-6.725 2.866,-6.245 2.251,-5.627 2,-5.375 2.188,-5.246 2.346,-5.089 c 0.156,0.155 0.319,0.382 0.532,0.1 0.228,-0.304 0.693,-0.426 0.672,-0.939 -0.007,-0.145 0.215,-0.285 0.432,-0.279 0.26,0.008 0.525,-0.028 0.781,0.006 0.885,0.116 1.517,-0.229 2.224,-0.775 v 1.865 c -0.492,0.493 -1,0.971 -1.477,1.478 -0.149,0.158 -0.138,0.337 -0.139,0.52 C 5.369,-2.46 5.295,-1.796 5.389,-1.157 5.517,-0.29 4.951,0.13 4.435,0.596 4.225,0.785 3.913,0.793 3.726,0.574 3.273,0.042 2.599,-0.288 2.386,-1.05 2.307,-1.331 1.948,-1.545 1.695,-1.764 1.438,-1.986 1.349,-1.675 1.213,-1.565 c -0.134,0.108 -0.339,0.252 -0.109,0.444 0.309,0.257 0.539,0.564 0.959,0.747 0.498,0.217 0.859,0.75 1.271,1.154 0.552,0.539 0.925,0.49 1.526,0.008 0.787,-0.631 1.128,-1.385 0.957,-2.371 -0.214,-1.239 0.198,-2.199 1.17,-2.969 v 1.477 C 6.668,-2.451 6.568,-1.736 6.713,-0.916 6.875,0.005 6.556,0.712 5.819,1.312 5.172,1.839 4.623,2.486 4.027,3.077 3.566,3.536 2.248,3.544 1.792,3.089 1.33,2.628 0.858,2.175 0.425,1.689 0.134,1.363 0.047,0.901 -0.325,0.601 -0.608,0.372 -0.746,0.372 -1.001,0.621 -1.264,0.877 -1.245,1.077 -0.974,1.24 0.122,1.898 0.955,2.851 1.854,3.729 1.977,3.848 2.125,3.829 2.271,3.845 3.28,3.959 4.132,3.783 4.819,2.898 5.409,2.139 6.163,1.504 6.86,0.831 6.918,0.775 6.946,0.713 6.987,0.655 v 1.53 C 6.146,3.019 5.306,3.853 4.475,4.697 4.275,4.899 4.062,4.949 3.79,4.989" /></g><g
           transform="translate(134.7061,76.5337)"
           id="g68"><path
             id="path70"
             style="fill:#29abe2;fill-opacity:1;fill-rule:nonzero;stroke:none"
             d="M 0,0 C 0.139,0.133 0.103,0.295 0.01,0.446 -0.149,0.542 -0.318,0.569 -0.439,0.424 -0.555,0.286 -0.55,0.1 -0.405,-0.018 -0.286,-0.115 -0.115,-0.11 0,0" /></g><g
           transform="translate(136.1387,73.5342)"
           id="g72"><path
             id="path74"
             style="fill:#29abe2;fill-opacity:1;fill-rule:nonzero;stroke:none"
             d="M 0,0 C 0.128,0.138 0.098,0.299 -0.006,0.445 -0.169,0.534 -0.341,0.56 -0.456,0.408 -0.562,0.267 -0.559,0.078 -0.404,-0.033 -0.283,-0.121 -0.11,-0.119 0,0" /></g><g
           transform="translate(112.8555,65.7661)"
           id="g76"><path
             id="path78"
             style="fill:#29abe2;fill-opacity:1;fill-rule:nonzero;stroke:none"
             d="M 0,0 C 0.15,0.121 0.11,0.29 0.011,0.466 -0.132,0.529 -0.293,0.577 -0.428,0.437 -0.539,0.318 -0.535,0.152 -0.44,0.031 -0.32,-0.122 -0.136,-0.109 0,0" /></g><g
           transform="translate(112.585,64.1421)"
           id="g80"><path
             id="path82"
             style="fill:#29abe2;fill-opacity:1;fill-rule:nonzero;stroke:none"
             d="m 0,0 c -0.116,-0.143 -0.094,-0.305 0.021,-0.45 0.163,-0.077 0.341,-0.097 0.448,0.054 0.097,0.139 0.098,0.33 -0.068,0.437 C 0.273,0.124 0.106,0.13 0,0" /></g><g
           transform="translate(112.751,75.5464)"
           id="g84"><path
             id="path86"
             style="fill:#29abe2;fill-opacity:1;fill-rule:nonzero;stroke:none"
             d="M 0,0 C -0.12,-0.113 -0.113,-0.281 -0.025,-0.404 0.09,-0.564 0.276,-0.55 0.414,-0.448 0.571,-0.332 0.53,-0.161 0.448,-0.001 0.299,0.107 0.137,0.127 0,0" /></g><g
           transform="translate(115.7402,62.8775)"
           id="g88"><path
             id="path90"
             style="fill:#29abe2;fill-opacity:1;fill-rule:nonzero;stroke:none"
             d="m 0,0 c -0.085,-0.164 -0.106,-0.341 0.044,-0.45 0.14,-0.102 0.331,-0.097 0.44,0.06 C 0.57,-0.267 0.571,-0.096 0.445,0.013 0.306,0.134 0.145,0.113 0,0" /></g><g
           transform="translate(116.6035,80.5049)"
           id="g92"><path
             id="path94"
             style="fill:#29abe2;fill-opacity:1;fill-rule:nonzero;stroke:none"
             d="m 0,0 c -0.09,-0.122 -0.094,-0.292 0.025,-0.405 0.136,-0.128 0.319,-0.121 0.443,0.01 0.126,0.134 0.093,0.302 -0.019,0.444 C 0.284,0.131 0.114,0.154 0,0" /></g><g
           transform="translate(76.2373,107.0137)"
           id="g96"><path
             id="path98"
             style="fill:#39b54a;fill-opacity:1;fill-rule:nonzero;stroke:none"
             d="m 0,0 c -0.366,-0.761 -0.759,-1.512 -1.183,-2.243 -0.886,-1.532 -1.58,-3.127 -1.786,-4.905 -0.022,-0.189 -0.11,-0.373 -0.185,-0.553 -0.194,-0.46 -0.492,-0.686 -1.045,-0.677 -2.052,0.034 -4.106,0.023 -6.158,0.006 -0.328,-0.003 -0.56,0.094 -0.76,0.337 -0.348,0.423 -0.625,0.878 -0.642,1.444 -0.055,1.79 -0.981,3.237 -1.828,4.722 -0.692,1.214 -1.414,2.416 -1.724,3.808 -0.979,4.41 0.767,7.887 4.59,9.785 1.036,0.514 2.165,0.687 3.593,0.685 C -3.216,12.376 0.065,9.794 0.901,5.869 1.342,3.801 0.897,1.861 0,0 m -3.869,-9.131 c -0.122,-0.033 -0.258,-0.021 -0.388,-0.02 -1.788,0.009 -3.577,0.02 -5.367,0.031 -0.19,-0.009 -0.38,-0.027 -0.571,-0.024 -0.211,0.003 -0.511,-0.068 -0.478,0.285 0.032,0.339 0.301,0.161 0.483,0.156 2.082,0.014 4.163,0.028 6.245,0.037 0.112,0 0.284,0.072 0.304,-0.134 0.017,-0.166 -0.073,-0.291 -0.228,-0.331 m -0.342,-1.011 c -0.993,0.005 -1.985,0.002 -2.978,0.002 -0.977,-10e-4 -1.954,-0.005 -2.93,0.002 -0.228,0.002 -0.542,-0.083 -0.555,0.293 -0.013,0.371 0.265,0.384 0.546,0.378 1.099,-0.025 2.197,-0.057 3.296,-0.059 0.877,-0.002 1.754,0.036 2.631,0.057 0.231,0.005 0.484,0.031 0.491,-0.308 0.008,-0.349 -0.234,-0.367 -0.501,-0.365 m 0.071,-0.968 c -1.04,0.003 -2.08,10e-4 -3.12,10e-4 -0.974,-10e-4 -1.949,-10e-4 -2.925,-10e-4 -0.216,-0.001 -0.461,-0.014 -0.477,0.279 -0.018,0.322 0.238,0.341 0.474,0.342 2.016,0.001 4.031,0 6.045,-10e-4 0.198,0 0.416,0.019 0.421,-0.27 0.005,-0.281 -0.173,-0.351 -0.418,-0.35 m -0.321,-0.962 c -1.825,-0.002 -3.65,-0.003 -5.475,-0.011 -0.241,-10e-4 -0.434,0.033 -0.429,0.325 0.006,0.284 0.222,0.272 0.422,0.272 0.928,0 1.857,0 2.786,0 0.896,0 1.792,-10e-4 2.688,0.002 0.221,0 0.467,0.004 0.469,-0.287 0.002,-0.285 -0.236,-0.301 -0.461,-0.301 m -0.503,-0.758 c -1.416,0.005 -2.832,0.003 -4.247,0.005 -0.114,0 -0.229,0.005 -0.34,0.024 -0.091,0.015 -0.219,0.019 -0.218,0.147 0.003,0.16 0.139,0.152 0.252,0.152 0.782,0.001 1.563,0.001 2.344,0.001 0.732,10e-4 1.465,0.004 2.197,-0.003 0.128,-0.001 0.336,0.074 0.337,-0.156 0,-0.206 -0.175,-0.17 -0.325,-0.17 M -7.252,15.504 -20.61,7.792 V -7.631 l 13.358,-7.712 13.356,7.712 V 7.792 Z" /></g><g
           transform="translate(65.752,99.5)"
           id="g100"><path
             id="path102"
             style="fill:none;stroke:#ededed;stroke-width:0.75;stroke-linecap:round;stroke-linejoin:round;stroke-miterlimit:4;stroke-dasharray:none;stroke-opacity:1"
             d="M 0,0 C 0.044,-0.021 0.088,-0.042 0.132,-0.062" /></g><g
           transform="translate(66.2441,118.1128)"
           id="g104"><path
             id="path106"
             style="fill:#39b54a;fill-opacity:1;fill-rule:nonzero;stroke:none"
             d="m 0,0 c -4.461,-1.774 -5.763,-6.167 -4.026,-10.356 0.542,-1.308 1.31,-2.509 2.026,-3.731 0.569,-0.971 0.919,-2.01 1.005,-3.132 0.039,-0.515 0.153,-0.995 0.503,-1.394 0.044,-0.02 0.088,-0.041 0.132,-0.062 0.856,0 1.712,0.001 2.567,0.001 0.073,0.098 0.076,0.211 0.076,0.326 10e-4,1.516 10e-4,3.032 0.006,4.548 10e-4,0.331 -0.149,0.517 -0.454,0.67 -1.817,0.915 -2.856,2.322 -2.901,4.436 -0.025,1.184 -0.214,2.368 -0.915,3.409 1.83,-0.927 3.668,-1.851 4.758,-3.71 0.651,-1.111 0.78,-2.297 0.239,-3.509 -0.014,-0.03 -0.091,-0.143 -0.154,-0.226 -0.388,-0.512 -0.339,-1.06 -0.342,-1.713 -0.01,-1.385 -0.017,-2.77 -0.025,-4.155 0.289,-0.032 0.578,-0.033 0.867,-0.042 v 6.181 c 0.042,0.09 0.068,0.197 0.091,0.287 0.172,0.968 0.196,1.937 0.776,2.776 0.598,0.863 1.394,1.177 2.405,1.004 0.4,-0.068 0.796,-0.155 1.199,-0.355 -0.735,-0.474 -1.114,-1.181 -1.493,-1.88 -0.534,-0.986 -1.331,-1.498 -2.384,-1.226 -0.253,0.065 -0.31,-0.068 -0.36,-0.222 v -6.576 c 0.523,-0.007 1.046,-0.001 1.569,-0.006 0.966,-0.01 0.966,-0.002 1.161,0.949 0.02,0.095 0.031,0.192 0.043,0.289 0.135,1.095 0.469,2.124 1.001,3.092 0.525,0.956 1.026,1.924 1.541,2.886 0.794,1.482 1.411,3.038 1.33,4.74 C 9.955,-0.718 4.084,1.624 0,0" /></g><g
           transform="translate(75.3271,32.8511)"
           id="g108"><path
             id="path110"
             style="fill:#fcee21;fill-opacity:1;fill-rule:nonzero;stroke:none"
             d="m 0,0 c -0.016,-0.051 -0.079,-0.043 -0.127,-0.044 -0.066,-0.001 -0.134,0 -0.201,0 -6.167,-0.001 -12.334,-0.001 -18.501,-0.001 -0.3,0 -0.462,0.269 -0.33,0.541 0.026,0.053 0.065,0.065 0.114,0.066 0.076,0.002 0.153,0.002 0.23,0.002 3.079,0 6.157,0 9.236,-0.001 3.107,0 6.215,0.001 9.322,-0.002 0.092,0 0.24,0.069 0.268,-0.079 C 0.04,0.326 0.05,0.158 0,0 m -17.069,5.786 c 1.246,0.443 2.491,0.887 3.734,1.341 0.19,0.069 0.208,0.001 0.203,-0.158 -0.007,-0.259 -0.011,-0.519 0.002,-0.777 0.008,-0.164 -0.052,-0.237 -0.207,-0.285 -0.587,-0.178 -1.169,-0.371 -1.753,-0.559 -0.087,-0.029 -0.174,-0.061 -0.269,-0.095 0.074,-0.116 0.191,-0.111 0.285,-0.143 0.574,-0.188 1.146,-0.379 1.725,-0.55 0.172,-0.052 0.228,-0.131 0.219,-0.304 -0.014,-0.258 -0.011,-0.518 -10e-4,-0.777 0.006,-0.156 -0.03,-0.208 -0.193,-0.148 -1.252,0.455 -2.506,0.905 -3.76,1.354 -0.114,0.041 -0.174,0.095 -0.169,0.226 0.008,0.21 0.01,0.422 -0.001,0.632 -0.009,0.145 0.064,0.2 0.185,0.243 m 5.652,-1.803 c 0.808,1.883 1.621,3.764 2.421,5.65 0.081,0.192 0.181,0.261 0.382,0.244 0.209,-0.017 0.422,-0.015 0.632,0 0.235,0.016 0.297,-0.028 0.189,-0.273 -0.461,-1.042 -0.903,-2.092 -1.353,-3.14 -0.536,-1.249 -1.078,-2.495 -1.603,-3.75 -0.098,-0.234 -0.204,-0.352 -0.477,-0.322 -0.273,0.029 -0.551,0.006 -0.867,0.006 0.235,0.55 0.454,1.069 0.676,1.585 m 4.786,3.02 c -0.004,0.154 0.047,0.174 0.186,0.124 1.252,-0.453 2.506,-0.9 3.758,-1.351 C -2.668,5.771 -2.646,5.767 -2.634,5.754 -2.406,5.5 -2.584,5.193 -2.529,4.917 -2.505,4.795 -2.563,4.729 -2.684,4.687 -3.929,4.243 -5.173,3.797 -6.416,3.347 -6.59,3.283 -6.636,3.333 -6.631,3.505 c 0.009,0.259 0.013,0.518 -0.002,0.776 -0.009,0.168 0.061,0.234 0.212,0.281 0.613,0.188 1.223,0.388 1.834,0.585 0.061,0.02 0.137,0.012 0.187,0.11 -0.676,0.218 -1.339,0.436 -2.007,0.642 -0.163,0.05 -0.237,0.119 -0.226,0.298 0.016,0.268 0.009,0.537 0.002,0.806 m 6.697,4.036 c -5.621,10e-4 -11.242,10e-4 -16.863,0 l -2.765,-1.596 c 0,-3.186 0.002,-6.372 -0.006,-9.558 -10e-4,-0.28 0.054,-0.371 0.357,-0.369 3.223,0.012 6.445,0.007 9.668,0.006 h 9.639 c 0.369,0 0.37,0.001 0.37,0.379 v 10.733 c 0,0.405 0,0.405 -0.4,0.405" /></g><g
           transform="translate(66.7388,25.4663)"
           id="g112"><path
             id="path114"
             style="fill:#fcee21;fill-opacity:1;fill-rule:nonzero;stroke:none"
             d="m 0,0 c -0.449,0.014 -0.899,0.011 -1.349,0 -0.18,-0.004 -0.254,0.05 -0.265,0.237 -0.051,0.812 -0.06,1.621 0.012,2.432 0.01,0.106 0.055,0.155 0.161,0.155 0.506,0 1.014,-0.002 1.521,0.002 0.171,10e-4 0.172,-0.11 0.171,-0.232 -0.001,-0.393 0,-0.784 0,-1.177 C 0.251,1.034 0.244,0.651 0.255,0.269 0.26,0.078 0.211,-0.007 0,0 m 2.246,24.46 -8.147,-4.703 h 4.903 c 3.338,0 6.676,-0.001 10.014,0 0.202,0 0.405,0.007 0.592,-0.084 0.268,-0.131 0.435,-0.323 0.435,-0.648 C 10.04,15.246 10.062,11.466 10.028,7.687 10.016,6.413 9.444,5.35 8.486,4.497 7.513,3.632 6.377,3.266 5.087,3.27 0.934,3.28 -3.22,3.27 -7.374,3.275 -8.826,3.278 -10.239,4.043 -11.112,5.198 V 1.324 L -8.125,-0.4 c 0.44,-0.001 0.879,-0.002 1.318,-0.002 h 6.157 c 2.686,-0.001 5.371,-0.004 8.056,0.005 0.258,0.001 0.37,-0.058 0.34,-0.333 -0.023,-0.208 -0.02,-0.423 10e-4,-0.632 0.026,-0.259 -0.075,-0.323 -0.325,-0.322 -2.321,0.01 -4.642,0.006 -6.963,0.006 -2.121,0 -4.242,-0.002 -6.363,-0.005 l 8.15,-4.705 13.357,7.712 v 15.424 z" /></g><g
           transform="translate(91.8018,81.5767)"
           id="g116"><path
             id="path118"
             style="fill:#00ffff;fill-opacity:1;fill-rule:nonzero;stroke:none"
             d="M 0,0 5.426,-3.132 10.851,0 C 8.846,0 6.842,0.003 4.837,0.003 3.225,0.003 1.612,0 0,0" /></g><g
           transform="translate(106.1592,104.1353)"
           id="g120"><path
             id="path122"
             style="fill:#00ffff;fill-opacity:1;fill-rule:nonzero;stroke:none"
             d="m 0,0 c -0.656,-0.854 -1.065,-1.909 -1.076,-3.067 -0.028,-2.86 2.249,-5.196 5.085,-5.219 0.143,-0.001 0.277,0.028 0.417,0.037 v 5.694 z" /></g><g
           transform="translate(109.9365,93.0445)"
           id="g124"><path
             id="path126"
             style="fill:#00ffff;fill-opacity:1;fill-rule:nonzero;stroke:none"
             d="M 0,0 C -0.186,-0.046 -0.491,-0.1 -0.482,0.282 -0.481,0.342 -0.491,0.403 -0.498,0.463 -0.65,1.683 -0.651,1.677 -1.857,1.961 -2.03,2.002 -2.107,1.946 -2.192,1.825 -2.412,1.516 -2.644,1.214 -2.856,0.9 -2.96,0.75 -3.062,0.684 -3.227,0.798 -3.238,0.807 -3.254,0.812 -3.268,0.817 -4.387,1.321 -4.406,1.33 -3.882,2.435 c 0.186,0.392 0.18,0.651 -0.199,0.891 -0.264,0.167 -0.377,0.596 -0.685,0.609 -0.272,0.01 -0.555,-0.213 -0.833,-0.336 -0.626,-0.279 -0.626,-0.28 -0.982,0.32 -0.416,0.7 -0.413,0.696 0.237,1.179 0.35,0.26 0.815,0.39 0.543,1.065 C -6.178,7.1 -6.11,7.127 -7.213,7.111 L -7.201,7.105 C -7.203,7.104 -7.205,7.103 -7.207,7.103 -6.851,6.687 -6.612,6.2 -6.353,5.724 -6.237,5.514 -6.294,5.407 -6.476,5.284 -6.865,5.021 -7.236,4.73 -7.624,4.464 -7.809,4.337 -7.885,4.227 -7.794,3.982 -7.654,3.6 -7.557,3.199 -7.479,2.798 -7.429,2.535 -7.303,2.459 -7.051,2.445 -6.597,2.42 -6.146,2.344 -5.691,2.315 -5.439,2.299 -5.362,2.187 -5.352,1.951 -5.329,1.465 -5.187,0.903 -5.416,0.518 -5.656,0.114 -6.266,0.296 -6.711,0.254 -7.198,0.208 -7.557,0.101 -7.542,-0.479 -7.54,-0.553 -7.574,-0.627 -7.588,-0.702 -7.646,-1.023 -7.941,-1.36 -7.793,-1.637 c 0.143,-0.266 0.508,-0.415 0.777,-0.612 0.829,-0.607 0.83,-0.606 0.308,-1.482 -0.445,-0.748 -0.444,-0.747 -1.256,-0.388 -0.347,0.154 -0.699,0.433 -1.039,0.418 -0.331,-0.014 -0.501,-0.48 -0.768,-0.724 -0.578,-0.531 -0.571,-0.538 -0.252,-1.247 0.105,-0.235 0.188,-0.485 0.324,-0.701 0.22,-0.348 0.08,-0.517 -0.227,-0.709 -1.182,-0.738 -1.177,-0.748 -1.987,0.355 -0.443,0.602 -0.431,0.516 -1.18,0.411 -0.88,-0.123 -1.184,-0.51 -1.195,-1.393 -0.011,-0.941 -0.099,-0.94 -1.047,-0.94 -0.927,0 -0.924,10e-4 -1.013,0.901 -0.036,0.362 0.013,0.78 -0.155,1.068 -0.181,0.31 -0.655,0.216 -0.995,0.321 -0.775,0.239 -0.779,0.227 -1.269,-0.445 -0.072,-0.098 -0.143,-0.196 -0.215,-0.294 -0.498,-0.682 -0.498,-0.682 -1.257,-0.255 -0.887,0.499 -0.887,0.499 -0.47,1.439 0.412,0.926 0.412,0.926 -0.277,1.63 -0.62,0.633 -0.62,0.633 -1.433,0.274 -0.042,-0.019 -0.084,-0.035 -0.126,-0.053 -0.948,-0.422 -0.948,-0.422 -1.467,0.503 -0.405,0.722 -0.404,0.721 0.268,1.214 0.317,0.232 0.748,0.412 0.91,0.727 0.156,0.306 -0.164,0.704 -0.242,1.071 -0.152,0.718 -0.161,0.716 -0.903,0.795 -0.287,0.03 -0.575,0.095 -0.86,0.082 -0.387,-0.017 -0.453,0.178 -0.438,0.497 0.02,0.454 -0.133,1.006 0.074,1.338 0.224,0.358 0.839,0.151 1.273,0.253 0.132,0.03 0.272,0.041 0.408,0.036 0.248,-0.008 0.331,0.107 0.372,0.346 0.064,0.372 0.153,0.746 0.29,1.097 0.108,0.278 0.075,0.435 -0.179,0.598 -0.383,0.245 -0.735,0.536 -1.112,0.792 -0.18,0.123 -0.249,0.233 -0.12,0.441 0.231,0.374 0.452,0.755 0.659,1.142 0.126,0.235 0.273,0.216 0.479,0.117 0.423,-0.204 0.86,-0.381 1.282,-0.585 0.191,-0.092 0.313,-0.086 0.464,0.087 0.281,0.319 0.584,0.618 0.901,0.901 0.163,0.146 0.196,0.262 0.099,0.463 -0.217,0.45 -0.399,0.918 -0.614,1.369 -0.083,0.174 -0.064,0.273 0.104,0.368 0.395,0.224 0.788,0.454 1.175,0.691 0.197,0.12 0.316,0.079 0.444,-0.112 0.27,-0.402 0.577,-0.781 0.848,-1.184 0.124,-0.184 0.24,-0.214 0.45,-0.145 0.402,0.134 0.813,0.25 1.228,0.329 0.23,0.044 0.299,0.145 0.315,0.355 0.04,0.484 0.1,0.967 0.142,1.451 0.019,0.219 0.108,0.321 0.343,0.313 0.5,-0.019 1.105,0.151 1.471,-0.074 0.362,-0.224 0.238,-0.886 0.247,-1.357 0.01,-0.502 0.205,-0.738 0.702,-0.758 0.163,-0.007 0.325,-0.072 0.485,-0.119 0.698,-0.205 0.697,-0.207 1.136,0.398 0.106,0.148 0.214,0.296 0.32,0.443 0.439,0.607 0.439,0.607 1.114,0.231 0.981,-0.546 0.981,-0.546 0.524,-1.571 -0.379,-0.851 -0.379,-0.851 0.284,-1.511 0.665,-0.663 0.665,-0.662 1.512,-0.285 0.315,0.141 0.634,0.279 0.95,0.419 -0.001,0.001 -0.002,0.003 -0.003,0.004 -0.436,0.03 -0.477,0.311 -0.475,0.678 0.007,0.953 -0.006,0.953 0.915,1.035 0.714,0.064 0.714,0.064 0.901,0.763 0.202,0.754 0.202,0.754 -0.431,1.213 -0.701,0.509 -0.701,0.509 -0.262,1.242 0.163,0.273 0.249,0.409 0.362,0.452 l -3.961,2.287 c -0.106,-0.118 -0.114,-0.349 -0.176,-0.527 -0.035,-0.102 -0.018,-0.168 0.071,-0.229 0.145,-0.097 0.278,-0.21 0.424,-0.303 0.102,-0.064 0.099,-0.116 0.049,-0.218 -0.254,-0.516 -0.256,-0.528 -0.773,-0.279 -0.198,0.094 -0.309,0.073 -0.455,-0.09 -0.324,-0.359 -0.334,-0.349 -0.145,-0.78 0.135,-0.306 0.135,-0.306 -0.151,-0.473 -0.053,-0.03 -0.109,-0.054 -0.158,-0.089 -0.13,-0.092 -0.238,-0.087 -0.306,0.07 -0.194,0.441 -0.503,0.52 -0.93,0.334 -0.112,-0.049 -0.176,-0.079 -0.177,-0.209 -10e-4,-0.127 -0.043,-0.255 -0.036,-0.381 0.012,-0.227 -0.097,-0.277 -0.298,-0.272 -0.569,0.014 -0.456,-0.027 -0.502,0.444 -0.008,0.09 -0.023,0.18 -0.036,0.269 -0.005,0.03 -0.007,0.08 -0.021,0.084 -0.221,0.07 -0.442,0.146 -0.667,0.192 -0.113,0.023 -0.14,-0.117 -0.204,-0.185 -0.016,-0.016 -0.029,-0.036 -0.041,-0.054 -0.298,-0.407 -0.424,-0.417 -0.817,-0.084 -0.076,0.064 -0.071,0.118 -0.035,0.194 0.073,0.157 0.137,0.319 0.214,0.474 0.051,0.099 0.044,0.182 -0.055,0.228 -0.208,0.096 -0.238,0.464 -0.564,0.373 -0.093,-0.027 -0.178,-0.083 -0.27,-0.115 -0.116,-0.039 -0.246,-0.189 -0.342,-0.098 -0.149,0.141 -0.244,0.341 -0.321,0.539 -0.015,0.039 0.016,0.071 0.047,0.094 0.03,0.023 0.061,0.045 0.091,0.067 0.254,0.186 0.376,0.279 0.413,0.403 L -25.055,9.12 c 0.128,-0.204 0.326,-0.306 0.654,-0.287 0.029,10e-4 0.06,-0.005 0.089,-0.012 0.287,-0.067 0.711,0.097 0.837,-0.182 0.163,-0.36 0.071,-0.806 0.042,-1.215 -0.007,-0.11 -0.074,-0.158 -0.174,-0.173 -0.061,-0.009 -0.121,-0.017 -0.181,-0.024 -0.406,-0.049 -0.922,0.036 -1.187,-0.183 -0.259,-0.215 -0.254,-0.743 -0.384,-1.126 -0.071,-0.205 -0.039,-0.339 0.143,-0.462 0.29,-0.194 0.558,-0.423 0.852,-0.609 0.205,-0.128 0.199,-0.235 0.098,-0.439 -0.51,-1.038 -0.514,-1.064 -1.555,-0.563 -0.091,0.044 -0.17,0.072 -0.245,0.091 V -6.888 l 3.364,-1.943 c 0.036,0.313 0.072,0.626 0.099,0.939 0.019,0.217 0.099,0.327 0.337,0.319 0.395,-0.014 0.79,-0.016 1.184,0.002 0.246,0.011 0.311,-0.11 0.33,-0.32 0.038,-0.408 0.092,-0.814 0.133,-1.222 0.032,-0.323 0.171,-0.492 0.527,-0.466 0.348,0.026 0.7,0.027 1.047,0 0.343,-0.027 0.469,0.151 0.504,0.442 0.051,0.407 0.1,0.814 0.131,1.222 0.018,0.239 0.108,0.33 0.361,0.347 1.453,0.097 1.453,0.104 1.609,-1.34 0.071,-0.662 0.074,-0.665 0.751,-0.665 0.273,0 0.548,0.021 0.819,-0.006 0.361,-0.035 0.492,0.152 0.528,0.466 0.047,0.407 0.106,0.813 0.139,1.22 0.02,0.252 0.14,0.331 0.38,0.323 0.364,-0.014 0.73,-0.023 1.093,0 0.291,0.019 0.36,-0.128 0.38,-0.371 0.03,-0.363 0.085,-0.725 0.111,-1.087 0.026,-0.379 0.163,-0.594 0.592,-0.552 0.316,0.032 0.639,0.03 0.956,10e-4 0.385,-0.036 0.514,0.161 0.548,0.496 0.041,0.407 0.097,0.813 0.136,1.222 0.02,0.2 0.101,0.309 0.314,0.285 0.015,-0.002 0.03,0 0.046,10e-4 1.453,0.103 1.453,0.103 1.596,-1.343 0.062,-0.625 0.095,-0.656 0.717,-0.655 0.273,0 0.55,0.022 0.82,-0.006 0.405,-0.041 0.54,0.164 0.57,0.522 0.033,0.393 0.09,0.785 0.125,1.178 0.019,0.222 0.117,0.294 0.345,0.31 1.471,0.102 1.471,0.108 1.618,-1.33 0.028,-0.28 0.055,-0.427 0.116,-0.523 l 2.078,1.2 c 0.013,0.107 0.025,0.214 0.034,0.322 0.02,0.241 0.127,0.317 0.371,0.332 0.332,0.02 0.578,0.032 0.776,0.027 l 1.129,0.653 v 6.835 C 0.437,-0.046 0.195,0.049 0,0" /></g><g
           transform="translate(96.624,105.7154)"
           id="g128"><path
             id="path130"
             style="fill:#00ffff;fill-opacity:1;fill-rule:nonzero;stroke:none"
             d="M 0,0 C 1.382,0.012 2.496,1.083 2.59,2.43 L 0.604,3.577 -2.474,1.8 C -2.129,0.755 -1.149,-0.01 0,0" /></g><g
           transform="translate(94.6348,100.9463)"
           id="g132"><path
             id="path134"
             style="fill:#00ffff;fill-opacity:1;fill-rule:nonzero;stroke:none"
             d="m 0,0 c -3.635,0.004 -6.603,-2.98 -6.584,-6.62 0.019,-3.6 2.977,-6.53 6.582,-6.52 3.646,0.011 6.554,2.934 6.553,6.586 C 6.55,-2.954 3.602,-0.004 0,0" /></g><g
           transform="translate(102.7354,100.1494)"
           id="g136"><path
             id="path138"
             style="fill:#2c4c5d;fill-opacity:1;fill-rule:nonzero;stroke:none"
             d="m 0,0 -0.012,0.006 c 0.001,-0.001 0.002,-0.003 0.003,-0.004 10e-4,-0.001 0.002,-0.003 0.003,-0.004 0.002,0 0.004,0.001 0.006,0.002" /></g><g
           transform="translate(110.3877,42.9273)"
           id="g140"><path
             id="path142"
             style="fill:#ed1e79;fill-opacity:1;fill-rule:nonzero;stroke:none"
             d="M 0,0 C -0.009,0.164 0.012,0.307 0.046,0.46 0.164,0.292 0.168,0.147 0,0 m 0.093,-1.233 c 0.111,-0.262 -0.045,-0.46 -0.112,-0.681 l -0.102,-0.199 c -0.245,-0.357 -0.511,-0.692 -0.936,-0.95 0.318,0.863 0.616,1.674 0.935,2.544 0.08,-0.272 0.125,-0.502 0.215,-0.714 m -1.774,1.056 c -0.351,0.02 -0.703,0.048 -1.054,0.059 -0.135,0.004 -0.226,0.023 -0.247,0.178 -0.009,0.065 -0.049,0.128 -0.115,0.166 V 0.225 c -0.019,0.023 -0.036,0.062 -0.059,0.066 -0.336,0.056 -0.279,0.312 -0.28,0.539 0,0.037 -0.004,0.074 -0.007,0.111 -10e-4,0.077 -0.002,0.152 -0.002,0.227 -0.004,0.009 -0.008,0.018 -0.01,0.026 0,0.003 0.006,0.008 0.01,0.011 -0.001,0.114 -0.002,0.228 -0.003,0.342 0.002,0.138 0.021,0.279 0,0.414 -0.027,0.166 0.073,0.217 0.186,0.277 0.119,0.065 0.157,-0.049 0.213,-0.097 0.862,-0.743 1.722,-1.49 2.58,-2.237 0.044,-0.039 0.11,-0.062 0.123,-0.153 -0.449,0.024 -0.892,0.048 -1.335,0.072 M -3.627,3.554 C -3.765,4.315 -3.908,5.076 -4.05,5.837 -4.052,5.85 -4.052,5.863 -4.058,5.874 -4.08,5.914 -4.072,5.984 -4.123,5.996 -4.132,5.99 -4.135,5.98 -4.149,5.979 -4.156,5.979 -4.156,5.984 -4.161,5.985 -4.199,5.954 -4.181,5.897 -4.173,5.851 -4.024,5.053 -3.876,4.254 -3.728,3.456 -3.714,3.383 -3.701,3.31 -3.688,3.236 -3.699,3.233 -3.712,3.229 -3.724,3.227 -4.095,4.031 -4.466,4.835 -4.835,5.64 c -0.138,0.299 -0.109,0.415 0.14,0.636 0.048,0.042 0.088,0.061 0.147,0.023 0.042,-0.027 0.093,-0.057 0.139,-0.055 0.137,0.007 0.189,-0.061 0.2,-0.185 0.003,-0.03 0.013,-0.066 0.048,-0.074 0.008,0.007 0.002,0.021 0.018,0.024 0.013,0.003 0.011,-0.011 0.02,-0.013 0.026,0.019 0.035,0.05 0.023,0.082 -0.047,0.132 10e-4,0.213 0.124,0.263 0.005,0.002 0.012,0.007 0.014,0.012 0.145,0.301 0.353,0.161 0.555,0.083 1.069,-0.41 2.139,-0.818 3.209,-1.228 C -0.142,5.187 -0.073,5.185 -0.025,5.112 -0.455,4.815 -0.883,4.518 -1.312,4.221 -1.875,3.83 -2.44,3.441 -3.002,3.047 -3.089,2.985 -3.149,2.97 -3.22,3.062 -3.245,3.095 -3.288,3.131 -3.326,3.135 -3.587,3.163 -3.592,3.364 -3.627,3.554 M -3.549,0.585 C -3.536,0.456 -3.569,0.37 -3.699,0.334 L -3.702,0.333 c -0.226,-0.098 -0.307,-0.281 -0.299,-0.515 0.002,-0.06 0.027,-0.122 -0.052,-0.161 -0.405,-0.195 -0.809,-0.393 -1.244,-0.565 0.053,0.102 0.105,0.206 0.158,0.307 0.456,0.869 0.911,1.738 1.368,2.605 0.033,0.06 0.045,0.163 0.152,0.134 C -3.522,2.111 -3.566,2.022 -3.563,1.96 -3.555,1.771 -3.553,1.583 -3.549,1.395 -3.548,1.244 -3.547,1.093 -3.546,0.941 -3.548,0.822 -3.561,0.702 -3.549,0.585 m -1.877,-1.484 c -0.056,-0.109 -0.109,-0.122 -0.219,-0.088 -0.354,0.11 -0.703,0.239 -1.066,0.313 -0.129,0.026 -0.073,0.122 -0.074,0.185 -0.145,0.275 0.079,0.368 0.229,0.493 0.735,0.614 1.47,1.226 2.203,1.841 0.118,0.098 0.227,0.207 0.338,0.311 0.048,0.044 0.107,0.092 0.164,0.05 C -3.785,2.159 -3.854,2.104 -3.877,2.061 -4.393,1.073 -4.913,0.089 -5.426,-0.899 M -5.439,-5.34 c -0.011,-0.001 -0.022,-0.001 -0.033,-0.002 -0.231,0.63 -0.463,1.26 -0.694,1.891 -0.277,0.755 -0.556,1.511 -0.831,2.266 -0.026,0.071 -0.099,0.156 0.009,0.214 0.11,0.061 0.126,0.262 0.34,0.178 0.321,-0.126 0.658,-0.21 0.99,-0.308 0.087,-0.025 0.137,-0.053 0.139,-0.161 0.027,-1.341 0.058,-2.681 0.088,-4.023 0,-0.018 -0.006,-0.036 -0.008,-0.055 m -0.196,0 c 0.002,0.002 -0.001,0.004 10e-4,0.007 -0.02,0.027 -0.042,0.055 -0.062,0.082 -1.035,1.424 -2.07,2.849 -3.106,4.272 -0.066,0.09 -0.074,0.131 0.059,0.149 0.274,0.036 0.547,0.086 0.819,0.132 0.068,0.011 0.105,0.006 0.146,-0.071 0.103,-0.195 0.27,-0.32 0.503,-0.296 0.121,0.011 0.132,-0.067 0.16,-0.14 0.361,-0.985 0.721,-1.971 1.082,-2.957 0.127,-0.348 0.252,-0.697 0.377,-1.046 0.016,-0.04 0.054,-0.077 0.022,-0.125 l 0.001,-0.003 v 0.001 c 0.002,-0.001 0.003,-0.002 0.004,-0.003 0.006,0.002 0.012,0.004 0.019,0.006 v -0.024 l -0.019,0.018 C -5.631,-5.339 -5.633,-5.34 -5.635,-5.34 m -3.31,4.773 c -0.017,0.956 -0.037,1.912 -0.058,2.869 -0.015,0.66 -0.032,1.32 -0.046,1.981 -0.002,0.062 -0.021,0.125 0.029,0.224 0.196,-0.595 0.378,-1.154 0.563,-1.713 0.295,-0.896 0.589,-1.791 0.887,-2.686 0.035,-0.106 0.044,-0.177 -0.069,-0.248 -0.106,-0.066 -0.184,-0.177 -0.182,-0.31 0.002,-0.109 -0.061,-0.122 -0.137,-0.134 -0.273,-0.045 -0.548,-0.083 -0.819,-0.137 -0.143,-0.028 -0.166,0.028 -0.168,0.154 m -0.324,-0.192 c -0.06,0.01 -0.125,0.004 -0.188,0 -0.08,-0.007 -0.126,0.013 -0.144,0.104 -0.025,0.135 -0.106,0.243 -0.225,0.311 -0.074,0.043 -0.084,0.095 -0.071,0.172 0.228,1.422 0.455,2.845 0.683,4.268 0.002,0.011 0.012,0.02 0.043,0.07 0.006,-0.125 0.011,-0.205 0.013,-0.285 0.031,-1.474 0.06,-2.946 0.097,-4.419 0.005,-0.166 -0.025,-0.248 -0.208,-0.221 m 0.148,-0.29 c -0.24,-0.947 -0.488,-1.893 -0.734,-2.84 -0.034,-0.126 -0.066,-0.252 -0.112,-0.426 -0.06,0.192 -0.167,0.277 -0.325,0.298 -0.089,0.012 -0.078,0.079 -0.071,0.144 0.015,0.155 0.029,0.311 0.043,0.468 0.002,0.024 0.004,0.049 0.006,0.074 0.083,0.488 0.133,0.981 0.181,1.475 0.002,0.024 0.004,0.049 0.006,0.074 0.005,0.039 0.011,0.078 0.016,0.117 0.004,0.024 0.007,0.05 0.01,0.074 -0.055,0.279 0.216,0.289 0.342,0.418 l 0.005,0.005 c 0.07,0.039 0.111,0.106 0.129,0.177 0.025,0.1 0.093,0.12 0.178,0.124 0.1,0.001 0.2,0.001 0.301,0.002 0.132,-0.042 0.039,-0.131 0.025,-0.184 m -1.533,-2.84 c -0.593,0.313 -1.065,0.747 -1.365,1.355 -0.008,0.016 -0.018,0.033 -0.026,0.05 -0.15,0.313 -0.152,0.314 -0.398,0.054 -0.196,-0.205 -0.417,-0.379 -0.634,-0.559 l -0.46,-0.296 h -10e-4 c -0.125,-0.057 -0.253,-0.11 -0.374,-0.173 -0.086,-0.046 -0.131,-0.024 -0.181,0.055 -0.299,0.479 -0.602,0.956 -0.906,1.432 -0.041,0.065 -0.065,0.117 0.006,0.179 0.032,0.027 0.066,0.07 0.07,0.108 0.025,0.269 0.226,0.257 0.415,0.28 0.792,0.092 1.583,0.188 2.374,0.283 0.043,0.006 0.085,0.013 0.127,0.018 l 0.014,-0.006 0.013,0.008 c 0.036,0.003 0.072,0.007 0.108,0.01 0.367,0.04 0.734,0.077 1.101,0.124 0.099,0.013 0.165,0.003 0.21,-0.095 0.05,-0.107 0.145,-0.182 0.253,-0.212 0.116,-0.034 0.123,-0.095 0.11,-0.194 -0.028,-0.205 -0.046,-0.41 -0.068,-0.616 -0.003,-0.024 -0.005,-0.05 -0.007,-0.075 -0.067,-0.533 -0.138,-1.067 -0.196,-1.601 -0.014,-0.137 -0.047,-0.195 -0.185,-0.129 m -3.56,0.297 -0.018,10e-4 -0.016,-0.01 c -0.26,-0.073 -0.518,-0.152 -0.783,-0.2 -0.091,-0.015 -0.151,-10e-4 -0.213,0.07 -0.286,0.317 -0.575,0.631 -0.871,0.94 -0.08,0.083 -0.075,0.14 -0.007,0.221 0.068,0.082 0.125,0.173 0.186,0.26 0.278,0.393 0.278,0.392 0.737,0.367 0.059,-0.003 0.072,-0.045 0.094,-0.078 0.303,-0.477 0.605,-0.956 0.909,-1.432 0.035,-0.056 0.049,-0.101 -0.018,-0.139 m -1.282,-0.273 c -0.025,-10e-4 -0.05,-0.002 -0.075,-0.004 -0.063,-10e-4 -0.125,-0.004 -0.187,-0.006 -0.127,0.003 -0.253,0.005 -0.38,0.007 -0.234,0.031 -0.469,0.062 -0.713,0.096 0.194,0.326 0.381,0.64 0.581,0.976 0.262,-0.281 0.515,-0.554 0.769,-0.826 0.022,-0.023 0.046,-0.044 0.063,-0.069 0.028,-0.046 0.109,-0.074 0.078,-0.135 -0.016,-0.028 -0.089,-0.028 -0.136,-0.039 m -1.712,0.235 c -0.278,0.469 -0.55,0.942 -0.846,1.45 0.557,-0.18 1.069,-0.348 1.582,-0.511 0.113,-0.036 0.076,-0.085 0.036,-0.151 -0.154,-0.259 -0.304,-0.519 -0.46,-0.778 -0.076,-0.128 -0.237,-0.137 -0.312,-0.01 m -0.399,0.096 c -0.022,0.007 -0.044,0.014 -0.066,0.021 -0.219,0.113 -0.436,0.225 -0.655,0.337 -0.165,0.119 -0.33,0.238 -0.494,0.358 l -0.009,0.006 c -0.064,0.06 -0.127,0.121 -0.204,0.194 0.257,0.145 0.504,0.283 0.747,0.426 0.061,0.036 0.088,0.019 0.118,-0.034 0.266,-0.448 0.532,-0.896 0.805,-1.355 -0.101,-0.03 -0.165,0.039 -0.242,0.047 m -1.73,1.194 c -0.091,0.115 -0.182,0.23 -0.307,0.388 0.435,-0.054 0.82,-0.101 1.204,-0.148 -0.236,-0.159 -0.452,-0.334 -0.716,-0.425 -0.061,0.061 -0.12,0.124 -0.181,0.185 m -0.533,0.725 c -0.04,0.089 -0.103,0.169 -0.155,0.254 l -0.001,-0.001 -0.033,0.061 -0.005,0.013 c -0.084,0.21 -0.166,0.42 -0.253,0.629 -0.036,0.088 -0.016,0.133 0.076,0.171 0.568,0.238 1.135,0.481 1.699,0.728 0.081,0.035 0.124,0.021 0.174,-0.045 0.033,-0.044 0.079,-0.094 0.129,-0.106 0.203,-0.046 0.203,-0.17 0.181,-0.345 -0.067,-0.524 -0.116,-1.051 -0.166,-1.576 -0.011,-0.131 -0.042,-0.18 -0.193,-0.154 -0.354,0.059 -0.711,0.101 -1.067,0.131 -0.181,0.014 -0.31,0.069 -0.386,0.24 m -0.286,1.582 c 0.169,0.042 0.337,0.088 0.506,0.133 0.088,0.02 0.178,0.041 0.267,0.061 l 0.035,0.015 c 0.153,0.029 0.306,0.058 0.462,0.089 -0.001,-0.021 10e-4,-0.038 -0.003,-0.04 -0.503,-0.212 -0.992,-0.457 -1.511,-0.631 -0.065,0.298 -0.065,0.297 0.244,0.373 m -0.367,0.249 c 0,0.123 -0.057,0.171 -0.159,0.071 -0.429,-0.423 -0.969,-0.6 -1.544,-0.708 -0.264,-0.05 -0.524,-0.122 -0.786,-0.184 0.022,0.062 0.043,0.125 0.064,0.187 0.011,0.009 0.014,0.021 0.013,0.033 0.414,0.868 0.828,1.736 1.24,2.604 0.369,0.778 0.743,1.553 1.095,2.34 0.083,0.186 0.229,0.107 0.344,0.15 0.107,0.039 0.113,-0.079 0.145,-0.137 0.407,-0.759 0.811,-1.519 1.216,-2.279 0.02,-0.038 0.046,-0.073 0.07,-0.11 -0.002,-0.013 0.003,-0.023 0.013,-0.03 0.147,-0.282 0.285,-0.568 0.445,-0.842 0.097,-0.169 0.171,-0.318 -0.014,-0.469 L -18.382,0.84 c -0.068,-0.037 -0.098,-0.106 -0.097,-0.172 0.003,-0.165 -0.094,-0.2 -0.23,-0.231 -0.317,-0.07 -0.632,-0.157 -0.948,-0.238 -0.207,-0.048 -0.418,-0.085 -0.621,-0.146 -0.163,-0.05 -0.245,-0.024 -0.245,0.163 m -2.624,-0.742 c -0.299,0.68 -0.596,1.357 -0.893,2.034 -0.407,0.927 -0.813,1.854 -1.223,2.779 -0.044,0.101 -0.076,0.181 0.04,0.254 0.035,0.021 0.071,0.067 0.075,0.105 0.02,0.238 0.185,0.23 0.36,0.237 0.364,0.014 0.727,0.045 1.092,0.068 l 0.149,0.006 c 0.195,0.011 0.391,0.022 0.585,0.033 0.045,0.002 0.089,0.004 0.134,0.005 0.491,0.026 0.983,0.053 1.475,0.079 0.038,0.002 0.075,0.004 0.112,0.007 0.055,10e-4 0.113,-0.005 0.168,0.004 0.1,0.018 0.173,-0.003 0.201,-0.111 0.006,-0.024 0.02,-0.052 0.04,-0.063 0.246,-0.147 0.128,-0.318 0.043,-0.498 -0.757,-1.597 -1.509,-3.194 -2.264,-4.791 -0.022,-0.049 -0.03,-0.108 -0.094,-0.148 m -0.15,-0.04 -0.016,-0.002 c -0.028,0.012 -0.054,0.026 -0.082,0.039 -0.01,0.006 -0.02,0.012 -0.031,0.019 -0.796,0.361 -1.59,0.726 -2.388,1.08 -0.133,0.059 -0.17,0.126 -0.154,0.268 0.123,1.113 0.238,2.227 0.359,3.341 0.007,0.071 -0.024,0.175 0.098,0.195 0.125,0.02 0.12,-0.092 0.15,-0.157 0.681,-1.548 1.361,-3.097 2.041,-4.646 0.019,-0.045 0.052,-0.087 0.039,-0.141 z m -0.138,-0.117 v 0 c -0.127,0.004 -0.253,0.005 -0.377,-0.035 -0.024,-0.002 -0.049,-0.004 -0.074,-0.006 -0.165,-0.005 -0.33,-0.002 -0.493,0.029 -0.627,0.124 -1.199,0.381 -1.73,0.732 -0.019,0.056 -0.127,0.064 -0.086,0.148 0.054,0.112 0.106,0.229 0.181,0.327 0.03,0.038 0.102,-0.026 0.152,-0.047 0.78,-0.351 1.559,-0.703 2.34,-1.055 0.016,-0.007 0.034,-0.011 0.051,-0.016 0.009,-0.008 0.019,-0.01 0.031,-0.007 0.002,-0.023 0.003,-0.046 0.005,-0.07 h 10e-4 z m 2.22,13.153 c 0.045,0.079 0.084,0.126 0.188,0.109 0.11,-0.016 0.082,-0.092 0.087,-0.154 0.082,-1.149 0.165,-2.296 0.246,-3.445 0.072,-1.016 0.141,-2.034 0.215,-3.05 0.009,-0.112 0.003,-0.182 -0.126,-0.223 -0.173,-0.055 -0.289,-0.19 -0.315,-0.37 -0.017,-0.12 -0.078,-0.131 -0.173,-0.137 -0.351,-0.018 -0.703,-0.044 -1.054,-0.066 -0.038,-0.002 -0.076,-0.003 -0.113,-0.005 -0.19,0.011 -0.38,-0.01 -0.568,-0.032 -0.037,-0.001 -0.075,-0.002 -0.112,-0.004 -0.216,0.01 -0.43,-0.013 -0.644,-0.036 -0.025,0 -0.051,-0.001 -0.076,-0.002 -0.238,-0.013 -0.478,-0.026 -0.717,-0.039 -0.041,-0.002 -0.082,-0.003 -0.123,-0.005 -0.198,-0.007 -0.396,-0.015 -0.593,-0.022 -0.027,0.134 -0.117,0.233 -0.194,0.337 1.357,2.381 2.716,4.762 4.072,7.144 m 0.127,1.284 c 0.307,0.184 0.628,0.33 1.027,0.435 -0.197,-0.229 -0.36,-0.418 -0.523,-0.608 -0.026,-0.03 -0.054,-0.049 -0.097,-0.022 -0.111,0.068 -0.231,0.092 -0.361,0.072 -0.04,-0.006 -0.077,10e-4 -0.087,0.048 -0.008,0.034 0.012,0.057 0.041,0.075 m 1.346,0.52 c 0.448,0.01 0.825,0.199 1.197,0.434 0.374,0.237 0.804,0.353 1.235,0.448 0.131,0.014 0.261,0.032 0.393,0.041 0.047,0.003 0.128,0.043 0.128,-0.052 -10e-4,-0.067 0.02,-0.151 -0.091,-0.178 -0.296,-0.074 -0.446,-0.27 -0.426,-0.576 0.008,-0.129 -0.084,-0.121 -0.154,-0.144 -0.718,-0.226 -1.436,-0.451 -2.154,-0.677 -0.03,-0.009 -0.057,-0.025 -0.085,-0.038 l 0.047,-0.085 c 0.697,0.214 1.394,0.427 2.09,0.644 0.173,0.055 0.339,0.136 0.476,-0.071 0.03,-0.044 0.11,-0.082 0.165,-0.08 0.206,0.011 0.235,-0.133 0.28,-0.279 0.279,-0.913 0.56,-1.826 0.841,-2.739 -0.016,-0.01 -0.039,-0.015 -0.049,-0.028 -0.182,-0.248 -0.366,-0.124 -0.569,-0.02 -1.29,0.662 -2.585,1.315 -3.878,1.974 -0.063,0.032 -0.161,0.034 -0.139,0.163 0.021,0.115 0.026,0.206 0.174,0.239 0.2,0.044 0.394,0.124 0.59,0.188 -0.031,0.021 -0.052,0.048 -0.058,0.086 -0.203,-0.06 -0.406,-0.121 -0.609,-0.18 -0.058,-0.018 -0.114,-0.045 -0.161,0.034 -0.045,0.074 -0.006,0.113 0.035,0.162 0.199,0.233 0.397,0.467 0.595,0.7 0.042,0.012 0.084,0.034 0.127,0.034 m 3.7,0.914 c 0.203,-0.041 0.367,0.002 0.511,0.145 0.113,0.017 0.193,0.14 0.342,0.109 -0.117,-0.079 -0.218,-0.148 -0.321,-0.217 -0.011,0.003 -0.019,-10e-4 -0.025,-0.011 -0.221,-0.13 -0.444,-0.257 -0.663,-0.393 -0.083,-0.05 -0.151,-0.086 -0.221,0.014 -0.018,0.024 -0.047,0.05 -0.074,0.056 -0.189,0.042 -0.199,0.172 -0.168,0.325 0.208,0.02 0.417,0.013 0.619,-0.028 m 1.604,0.495 c 0.026,10e-4 0.051,0.002 0.077,0.004 0.164,-0.006 0.329,-0.012 0.493,-0.018 0.037,-0.007 0.074,-0.014 0.11,-0.021 0.254,-0.072 0.255,-0.073 0.099,-0.298 -0.417,-0.599 -0.835,-1.197 -1.252,-1.795 -0.112,-0.161 -0.442,-0.213 -0.595,-0.095 -0.249,0.191 -0.496,0.386 -0.747,0.575 -0.069,0.052 -0.107,0.092 -0.05,0.181 0.044,0.068 0.074,0.158 0.051,0.235 -0.055,0.178 0.05,0.242 0.179,0.315 0.185,0.103 0.363,0.222 0.544,0.335 0.01,0.006 0.021,0.013 0.033,0.02 0.146,0.084 0.292,0.171 0.44,0.252 0.203,0.11 0.378,0.274 0.618,0.31 m 1.217,-0.225 c -0.275,-0.316 -0.554,-0.636 -0.832,-0.955 -0.017,-0.03 -0.04,-0.042 -0.071,-0.02 0.014,0.017 0.028,0.034 0.043,0.05 0.207,0.299 0.418,0.595 0.62,0.897 0.066,0.1 0.128,0.13 0.24,0.028 m 0.659,0.122 c -0.262,-0.634 -0.515,-1.242 -0.768,-1.851 -0.113,-0.272 -0.229,-0.544 -0.337,-0.819 -0.035,-0.088 -0.075,-0.132 -0.181,-0.113 -0.107,0.019 -0.223,-0.008 -0.301,-0.081 -0.113,-0.106 -0.197,-0.08 -0.303,0.002 -0.144,0.109 -0.347,0.172 -0.282,0.419 0.002,0.006 0,0.014 -0.003,0.018 -0.188,0.209 -0.015,0.333 0.107,0.475 0.438,0.511 0.873,1.023 1.311,1.535 0.216,0.255 0.37,0.341 0.757,0.415 m 0.309,0.08 c 0.388,0.052 0.763,-0.003 1.137,-0.098 0.311,-0.094 0.54,-0.297 0.756,-0.534 0.529,-0.579 1.073,-1.146 1.609,-1.719 0.042,-0.044 0.141,-0.087 0.065,-0.165 -0.088,-0.094 -0.008,-0.312 -0.236,-0.305 -0.124,0.004 -0.249,-0.027 -0.374,-0.044 -0.037,-0.005 -0.075,-0.01 -0.112,-0.016 -0.129,-0.004 -0.258,0.002 -0.382,-0.042 -0.024,-0.002 -0.049,-0.004 -0.073,-0.005 -0.391,-0.02 -0.78,-0.067 -1.167,-0.118 -0.012,-0.001 -0.025,-0.002 -0.037,-0.003 -0.33,-0.025 -0.662,-0.05 -0.989,-0.106 -0.038,-0.002 -0.075,-0.005 -0.112,-0.007 -0.322,-0.032 -0.644,-0.065 -0.965,-0.095 -0.08,-0.007 -0.16,-0.03 -0.239,0.002 0.002,0.01 0,0.019 -0.009,0.026 -10e-4,0.075 -0.038,0.143 -0.092,0.177 -0.159,0.102 -0.108,0.218 -0.053,0.35 0.352,0.839 0.703,1.679 1.047,2.521 0.046,0.11 0.102,0.165 0.226,0.181 m 2.049,-0.203 c 0.366,0.012 0.715,-0.054 1.032,-0.245 0.047,-0.028 0.094,-0.033 0.146,-0.028 0.254,0.027 0.501,-0.016 0.745,-0.085 0.131,-0.038 0.16,-0.12 0.141,-0.255 -0.029,-0.223 -0.034,-0.45 -0.049,-0.676 l -0.009,-0.149 c -0.016,-0.157 -0.052,-0.315 -0.04,-0.469 0.014,-0.195 -0.143,-0.165 -0.237,-0.226 -0.108,-0.07 -0.145,0.022 -0.196,0.076 -0.587,0.621 -1.172,1.245 -1.757,1.868 -0.03,0.033 -0.088,0.056 -0.066,0.128 0.096,0.02 0.192,0.041 0.29,0.061 m 2.183,-0.513 c 0.146,-0.035 0.266,-0.065 0.387,-0.094 0.003,-0.009 0.009,-0.012 0.018,-0.008 0.384,-0.21 0.791,-0.4 0.784,-0.937 0.002,-0.025 0.005,-0.05 0.008,-0.074 0.018,-0.186 0.034,-0.373 0.058,-0.558 0.014,-0.096 0.007,-0.165 -0.098,-0.207 -0.054,-0.021 -0.093,-0.08 -0.14,-0.121 -0.052,-0.047 -0.034,-0.166 -0.138,-0.153 -0.184,0.021 -0.374,0.016 -0.551,0.078 -0.023,0.008 -0.029,0.065 -0.041,0.099 l -0.002,0.003 c -0.034,0.229 -0.191,0.337 -0.393,0.4 0.036,0.523 0.072,1.046 0.108,1.572 m 1.256,-1.946 0.009,-0.009 -0.009,0.008 z m 0.186,-0.744 c 0.11,0.007 0.215,0.059 0.269,0.153 0.068,0.116 0.15,0.122 0.266,0.1 0.388,-0.078 0.776,-0.153 1.166,-0.215 0.114,-0.019 0.154,-0.064 0.136,-0.156 0.02,-0.096 -0.039,-0.123 -0.092,-0.157 -0.663,-0.421 -1.328,-0.838 -1.985,-1.267 -0.118,-0.077 -0.164,0.012 -0.243,0.045 -0.101,0.042 -0.06,0.105 -0.041,0.169 0.121,0.396 0.244,0.792 0.358,1.19 0.027,0.093 0.069,0.131 0.166,0.138 m 0.128,1.922 c 0.37,-0.072 0.669,-0.271 0.934,-0.528 0.071,-0.103 0.139,-0.208 0.213,-0.308 0.078,-0.105 0.033,-0.145 -0.072,-0.18 -0.226,-0.072 -0.447,-0.155 -0.671,-0.234 -0.118,-0.046 -0.224,-0.05 -0.294,0.083 -0.008,0.014 -0.026,0.031 -0.043,0.035 -0.316,0.063 -0.27,0.326 -0.302,0.547 -0.012,0.093 -0.027,0.184 -0.041,0.276 -0.002,0.026 -0.003,0.05 -0.005,0.075 -0.01,0.292 -0.01,0.29 0.281,0.234 m 1.305,-1.179 0.041,-0.211 C -5.13,12.78 -5.153,12.773 -5.178,12.768 h -0.037 c -0.063,-0.001 -0.126,-0.002 -0.189,-0.004 -0.215,0.005 -0.429,0.008 -0.642,-0.027 l -0.076,-0.003 c -0.044,0.063 0.028,0.056 0.047,0.08 0.248,0.082 0.497,0.163 0.743,0.249 0.085,0.03 0.155,0.047 0.186,-0.066 M -6.814,9.781 c -0.076,0.085 -0.129,0.147 -0.04,0.267 0.09,0.12 0.088,0.277 0.038,0.418 -0.03,0.08 -0.005,0.11 0.056,0.149 0.664,0.42 1.327,0.843 1.989,1.265 0.04,0.024 0.077,0.046 0.123,0.021 l 0.006,0.006 c 0.013,-0.012 0.025,-0.025 0.038,-0.038 l -0.01,-0.009 c 0.012,-0.012 0.026,-0.024 0.039,-0.037 0.21,-0.085 0.216,-0.255 0.215,-0.452 -0.006,-1.296 0.001,-2.592 0.002,-3.888 0,-0.083 0.027,-0.172 -0.089,-0.218 -0.118,-0.046 -0.173,0.022 -0.237,0.094 -0.709,0.808 -1.419,1.617 -2.13,2.422 m 2.649,-6.817 c -0.491,0.224 -0.992,0.427 -1.489,0.639 -0.942,0.402 -1.884,0.803 -2.824,1.209 -0.058,0.026 -0.164,0.012 -0.157,0.123 0.008,0.119 0.086,0.16 0.197,0.184 0.987,0.218 1.974,0.441 2.96,0.663 0.111,0.025 0.221,0.05 0.332,0.075 0.103,0.024 0.109,-0.065 0.135,-0.123 C -4.63,4.914 -4.25,4.094 -3.873,3.271 -3.85,3.22 -3.771,3.146 -3.879,3.099 -3.974,3.056 -3.989,2.884 -4.165,2.964 m -4.712,1.705 c 0.086,0.055 0.151,0.124 0.285,0.065 1.459,-0.63 2.924,-1.253 4.387,-1.876 C -4.127,2.826 -4.076,2.793 -4.098,2.694 -4.113,2.621 -4.099,2.544 -4.054,2.479 -3.938,2.317 -4.059,2.251 -4.167,2.16 -5.047,1.428 -5.924,0.691 -6.799,-0.047 c -0.084,-0.07 -0.149,-0.123 -0.252,-0.028 -0.038,0.035 -0.106,0.063 -0.156,0.056 -0.205,-0.027 -0.238,0.109 -0.286,0.258 -0.46,1.411 -0.925,2.82 -1.386,4.23 -0.02,0.062 -0.096,0.138 0.002,0.2 m 1.808,4.988 C -6.442,8.452 -5.802,7.254 -5.166,6.054 -5.157,6.037 -5.155,6.019 -5.145,5.979 -6.26,5.729 -7.364,5.48 -8.468,5.229 -8.556,5.209 -8.61,5.214 -8.63,5.317 c -0.009,0.047 -0.034,0.107 -0.071,0.129 -0.21,0.129 -0.126,0.289 -0.069,0.457 0.419,1.24 0.833,2.48 1.252,3.719 0.02,0.058 0.012,0.161 0.114,0.143 0.113,-0.022 0.243,0.069 0.335,-0.108 m -0.147,1.296 c -0.027,-0.1 -0.082,-0.123 -0.17,-0.135 -0.106,-0.013 -0.106,0.072 -0.128,0.129 -0.152,0.433 -0.3,0.866 -0.453,1.299 -0.024,0.069 -0.037,0.132 0.029,0.186 l 10e-4,10e-4 c 0.035,0.026 0.07,0.05 0.103,0.078 0.071,0.059 0.062,0.21 0.162,0.211 0.181,0.003 0.361,-0.035 0.542,-0.06 0.044,-0.006 0.049,-0.047 0.062,-0.084 0.016,-0.053 0.033,-0.125 0.073,-0.148 0.216,-0.127 0.142,-0.291 0.084,-0.467 -0.11,-0.334 -0.211,-0.671 -0.305,-1.01 m -1.879,-0.535 c 0.003,0.006 0.022,0.008 0.032,0.007 0.009,-0.002 0.016,-0.012 0.025,-0.019 -0.011,-0.005 -0.022,-0.012 -0.031,-0.011 -0.013,0 -0.038,-0.003 -0.026,0.023 M -9.889,9.811 c -0.017,0.101 -0.005,0.162 0.101,0.204 0.088,0.035 0.16,0.111 0.189,0.2 0.048,0.14 0.131,0.166 0.27,0.152 0.307,-0.029 0.615,-0.041 0.924,-0.054 0.041,-0.001 0.092,-0.007 0.13,0.008 -0.016,0.008 -0.033,0.015 -0.031,0.042 10e-4,0.031 0.02,0.036 0.036,0.044 -0.035,0.018 -0.084,0.016 -0.123,0.019 -0.333,0.025 -0.666,0.045 -0.999,0.063 -0.071,0.004 -0.138,0.007 -0.16,0.094 0.006,0.013 0.003,0.024 -0.008,0.034 -0.203,0.234 -0.016,0.387 0.113,0.554 0.279,0.364 0.558,0.728 0.834,1.097 0.062,0.084 0.118,0.088 0.226,0.086 0.267,-0.005 0.329,-0.164 0.393,-0.372 0.107,-0.354 0.236,-0.703 0.363,-1.051 0.039,-0.105 0.061,-0.191 -0.056,-0.255 -0.021,-0.012 -0.044,-0.034 -0.049,-0.056 -0.061,-0.255 -0.243,-0.235 -0.438,-0.205 -0.03,0.005 -0.067,0.006 -0.096,-0.008 0.019,-0.009 0.041,-0.012 0.039,-0.048 -0.002,-0.03 -0.026,-0.031 -0.044,-0.038 0.025,-0.012 0.057,-0.015 0.085,-0.021 0.037,-0.007 0.075,-0.013 0.112,-0.01 0.145,0.009 0.259,-0.018 0.271,-0.197 0.003,-0.039 0.032,-0.091 0.065,-0.112 0.19,-0.122 0.129,-0.27 0.072,-0.438 C -8.092,8.299 -8.506,7.053 -8.925,5.807 -8.948,5.735 -8.95,5.651 -9.077,5.661 c -0.127,0.011 -0.115,0.096 -0.128,0.17 -0.229,1.326 -0.454,2.653 -0.684,3.98 m -5.979,-10.809 c -0.502,0.408 -1.008,0.812 -1.512,1.219 -0.048,0.038 -0.113,0.067 -0.083,0.149 0.053,0.146 0.035,0.287 -0.038,0.419 -0.042,0.073 0.007,0.103 0.046,0.14 0.209,0.2 0.418,0.399 0.63,0.596 0.103,0.098 0.435,0.013 0.478,-0.124 0.235,-0.746 0.465,-1.493 0.699,-2.24 0.021,-0.069 0.037,-0.124 -0.04,-0.177 -0.075,-0.05 -0.119,-0.031 -0.18,0.018 m -1.718,-1 c 0.49,0.109 0.981,0.213 1.469,0.33 0.14,0.033 0.25,0.033 0.319,-0.111 V -1.78 c 0.055,-0.064 0.014,-0.114 -0.023,-0.165 -0.138,-0.195 -0.278,-0.388 -0.413,-0.583 -0.043,-0.064 -0.082,-0.097 -0.168,-0.066 -0.183,0.068 -0.37,0.12 -0.555,0.181 -0.314,0.102 -0.629,0.206 -0.948,0.344 0.106,0.024 0.213,0.048 0.319,0.071 m -0.34,1.937 c 0.005,0.047 0.011,0.068 0.046,0.075 0.108,0.023 0.203,0.067 0.282,0.143 0.054,0.052 0.089,0.016 0.129,-0.015 0.51,-0.412 1.02,-0.822 1.53,-1.231 0.051,-0.042 0.104,-0.084 0.053,-0.154 -0.067,-0.091 0.025,-0.256 -0.166,-0.295 -0.64,-0.134 -1.277,-0.28 -1.915,-0.426 -0.134,-0.03 -0.183,10e-4 -0.144,0.102 0.066,0.625 0.131,1.213 0.185,1.801 m -1.999,4.798 c 0.966,-0.794 1.93,-1.59 2.896,-2.383 0.077,-0.062 0.117,-0.115 0.081,-0.219 -0.034,-0.098 -0.023,-0.212 0.036,-0.291 0.104,-0.143 0.03,-0.217 -0.069,-0.307 -0.214,-0.194 -0.421,-0.395 -0.631,-0.595 -0.01,0.006 -0.02,0.007 -0.03,0.003 -0.086,0.098 -0.204,0.137 -0.322,0.12 -0.13,-0.018 -0.171,0.046 -0.222,0.142 -0.269,0.509 -0.545,1.014 -0.819,1.52 0.002,0.011 -0.002,0.021 -0.013,0.028 -0.327,0.622 -0.654,1.243 -0.981,1.865 -0.031,0.06 -0.078,0.112 -0.073,0.188 0.078,0.02 0.108,-0.037 0.147,-0.071 m 2.68,4.658 c 0.058,-0.057 0.071,-0.106 0.033,-0.181 -0.095,-0.186 -0.072,-0.369 0.051,-0.533 0.052,-0.07 0.055,-0.11 -0.007,-0.172 -0.929,-0.941 -1.855,-1.882 -2.783,-2.823 -0.037,-0.038 -0.077,-0.103 -0.139,-0.039 -0.082,0.087 -0.262,0.042 -0.271,0.239 -0.027,0.546 -0.075,1.092 -0.113,1.637 -0.115,1.626 -0.224,3.253 -0.349,4.878 -0.014,0.185 0.087,0.223 0.209,0.282 0.043,-10e-4 0.069,-0.04 0.099,-0.071 1.09,-1.072 2.179,-2.145 3.27,-3.217 m 1.247,0.51 c -0.128,-0.16 -0.246,-0.327 -0.369,-0.491 -0.022,-10e-4 -0.044,-0.002 -0.066,-0.003 -0.17,0.145 -0.356,0.145 -0.543,0.049 -0.077,-0.039 -0.123,-0.051 -0.192,0.018 -1.099,1.087 -2.201,2.172 -3.303,3.258 -0.008,0.008 -0.01,0.022 -0.015,0.034 -0.015,0.002 -0.033,0.008 -0.019,0.026 0.004,0.005 0.026,-0.003 0.039,-0.005 h 0.001 c 0.953,-0.482 1.907,-0.963 2.861,-1.445 0.454,-0.23 0.907,-0.463 1.362,-0.69 0.089,-0.044 0.138,-0.084 0.123,-0.197 -0.018,-0.134 0.022,-0.266 0.121,-0.364 0.072,-0.072 0.055,-0.12 0,-0.19 m 0.765,0.138 c 0.056,0.052 0.095,0.034 0.149,0.005 0.783,-0.429 1.567,-0.856 2.352,-1.283 0.022,-0.012 0.046,-0.02 0.069,-0.03 -0.009,-0.01 -0.018,-0.02 -0.026,-0.031 -1.112,0.077 -2.223,0.153 -3.333,0.232 -0.179,0.012 -0.33,0.343 -0.217,0.488 0.115,0.145 0.242,0.281 0.337,0.442 0.032,0.056 0.089,0.081 0.162,0.058 0.191,-0.061 0.362,-0.013 0.507,0.119 m 2.668,-1.045 c 0.026,-0.061 0.046,-0.124 0.07,-0.185 -0.066,-0.028 -0.096,0.012 -0.132,0.032 -0.778,0.422 -1.555,0.846 -2.334,1.266 -0.101,0.054 -0.161,0.102 -0.112,0.227 0.026,0.07 0.032,0.162 -0.007,0.222 -0.114,0.172 -0.005,0.27 0.099,0.381 0.271,0.294 0.539,0.591 0.808,0.887 l 0.016,-0.006 0.016,0.001 c 0.068,-0.067 0.159,-0.097 0.243,-0.081 0.165,0.034 0.209,-0.061 0.26,-0.186 0.355,-0.854 0.715,-1.705 1.073,-2.558 m -0.723,2.933 c 0.858,-0.413 1.721,-0.819 2.585,-1.221 0.102,-0.048 0.154,-0.099 0.111,-0.207 0.004,-0.049 -0.006,-0.102 0.015,-0.135 0.103,-0.167 -10e-4,-0.248 -0.118,-0.342 -0.502,-0.399 -0.999,-0.804 -1.495,-1.211 -0.087,-0.071 -0.132,-0.103 -0.19,0.038 -0.388,0.94 -0.784,1.876 -1.18,2.814 -0.033,0.079 -0.057,0.139 0.036,0.208 0.078,0.058 0.121,0.112 0.236,0.056 m 3.31,-0.943 c -0.098,0.041 -0.223,0.024 -0.317,-0.06 -0.01,0.003 -0.018,0 -0.022,-0.009 -0.044,10e-4 -0.071,-0.03 -0.092,-0.059 -0.072,-0.096 -0.147,-0.097 -0.255,-0.045 -0.553,0.269 -1.109,0.528 -1.665,0.789 -0.301,0.142 -0.603,0.283 -0.903,0.426 -0.065,0.031 -0.141,0.048 -0.117,0.158 0.024,0.104 0.096,0.083 0.16,0.089 1.25,0.13 2.5,0.259 3.75,0.39 0.066,0.007 0.138,0 0.198,0.044 l 0.004,-0.002 c 0.079,-0.028 0.161,-0.015 0.235,0.006 0.158,0.044 0.27,0.009 0.329,-0.152 h 10e-4 c 0.009,-0.012 0.018,-0.023 0.026,-0.035 v -0.001 c 0.058,-0.08 -0.013,-0.125 -0.051,-0.175 -0.277,-0.371 -0.554,-0.74 -0.831,-1.11 l -0.1,-0.129 c -0.086,-0.126 -0.179,-0.198 -0.35,-0.125 M -12.18,8.521 c -0.071,0.079 -0.05,0.116 0.022,0.174 0.545,0.437 1.093,0.87 1.626,1.322 0.114,0.096 0.165,-0.006 0.246,-0.011 h -0.002 c 0.3,-0.021 0.293,-0.254 0.329,-0.464 0.214,-1.26 0.429,-2.519 0.649,-3.776 0.023,-0.125 -0.054,-0.145 -0.124,-0.196 -0.083,-0.059 -0.11,0.01 -0.149,0.054 -0.865,0.966 -1.73,1.933 -2.597,2.897 m 2.397,-3.155 c -0.879,0.37 -1.758,0.744 -2.638,1.114 -0.092,0.039 -0.139,0.077 -0.126,0.19 0.019,0.173 -0.053,0.32 -0.189,0.431 -0.051,0.041 -0.096,0.073 -0.065,0.153 0.158,0.408 0.314,0.817 0.48,1.253 0.904,-1.012 1.783,-1.995 2.663,-2.979 0.047,-0.052 0.102,-0.099 0.042,-0.175 -0.061,-0.076 -0.116,-0.008 -0.167,0.013 m -2.864,1.287 0.012,-0.002 -0.008,-0.01 z m -3.34,-4.138 c 0.27,0.379 0.54,0.758 0.81,1.137 0.589,0.825 1.179,1.647 1.764,2.474 0.048,0.067 0.083,0.096 0.166,0.067 0.226,-0.075 0.425,-0.019 0.577,0.163 0.059,0.071 0.106,0.061 0.177,0.031 C -11.586,6 -10.678,5.613 -9.767,5.233 -9.614,5.17 -9.66,5.034 -9.628,4.932 -9.6,4.844 -9.712,4.846 -9.766,4.823 c -2,-0.84 -4.001,-1.676 -6.001,-2.512 -0.041,-0.018 -0.082,-0.035 -0.119,-0.049 -0.081,-0.005 -0.081,0.071 -0.119,0.107 -0.059,0.057 -0.015,0.101 0.018,0.146 m 2.615,3.771 c -0.004,-0.009 -0.008,-0.016 -0.012,-0.024 -0.005,0.002 -0.009,0.004 -0.013,0.005 0.003,0.007 0.007,0.016 0.011,0.024 10e-4,0 0.009,-0.004 0.014,-0.005 m 0.245,0.871 -0.007,-0.008 -0.006,0.008 z m -0.276,-0.051 c -0.074,-0.068 -0.129,-0.063 -0.211,-0.013 -0.76,0.465 -1.508,0.949 -2.279,1.395 -0.09,0.053 -0.197,0.101 -0.274,0.183 -0.032,0.034 -0.103,0.042 -0.076,0.11 0.024,0.061 0.081,0.048 0.131,0.041 1.185,-0.083 2.371,-0.166 3.557,-0.245 0.112,-0.008 0.122,-0.038 0.084,-0.136 -0.145,-0.368 -0.285,-0.738 -0.423,-1.109 -0.03,-0.08 -0.066,-0.123 -0.162,-0.111 -0.13,0.016 -0.253,-0.026 -0.347,-0.115 m -3.195,0.79 c -0.001,0.113 0.023,0.233 -0.006,0.338 -0.058,0.218 0.099,0.278 0.228,0.368 0.058,0.039 0.095,10e-4 0.136,-0.025 0.863,-0.532 1.724,-1.064 2.588,-1.595 0.072,-0.044 0.087,-0.085 0.061,-0.167 -0.044,-0.146 -0.016,-0.294 0.076,-0.412 0.069,-0.087 0.064,-0.14 0.001,-0.227 -0.76,-1.059 -1.516,-2.119 -2.273,-3.18 -0.079,-0.111 -0.158,-0.223 -0.239,-0.332 -0.056,-0.074 -0.079,-0.169 -0.23,-0.124 -0.144,0.042 -0.173,0.111 -0.172,0.235 0.001,0.094 -0.009,0.189 -0.015,0.283 -0.01,0.357 -0.018,0.715 -0.03,1.073 -0.041,1.255 -0.083,2.51 -0.125,3.765 m -3.3,-2.533 c -0.057,0.12 -0.022,0.188 0.063,0.274 0.908,0.917 1.815,1.835 2.713,2.762 0.116,0.12 0.213,0.095 0.332,0.061 0.119,-0.034 0.048,-0.138 0.07,-0.208 0.013,-0.04 0.011,-0.086 0.015,-0.13 0.054,-1.687 0.106,-3.376 0.16,-5.063 -10e-4,-0.057 -0.005,-0.114 -0.003,-0.17 0.006,-0.321 0.004,-0.317 -0.264,-0.481 -0.095,-0.057 -0.125,0.025 -0.17,0.062 -0.706,0.579 -1.41,1.16 -2.114,1.741 -0.253,0.208 -0.504,0.418 -0.759,0.623 -0.073,0.058 -0.115,0.102 -0.058,0.2 0.059,0.102 0.064,0.226 0.015,0.329 m 5.542,6.711 c -0.003,-0.01 -10e-4,-0.016 0.008,-0.021 0.061,-0.102 0.056,-0.179 -0.036,-0.276 -0.262,-0.273 -0.51,-0.561 -0.763,-0.843 -0.043,-0.048 -0.073,-0.118 -0.166,-0.056 -0.071,0.047 -0.108,0.08 -0.092,0.174 0.079,0.49 0.153,0.981 0.223,1.473 0.014,0.092 0.04,0.152 0.146,0.151 0.03,-10e-4 0.07,0.008 0.089,0.027 0.131,0.144 0.233,0.045 0.352,-0.024 0.156,-0.091 0.273,-0.181 0.196,-0.391 -0.025,-0.064 -0.01,-0.15 0.043,-0.214 m -2.166,2.046 c 10e-4,0.004 0.002,0.009 0.004,0.013 l 0.003,-0.003 c -0.003,-0.003 -0.005,-0.007 -0.007,-0.01 m 0.069,-0.102 c 0.047,0.004 0.075,-0.036 0.108,-0.061 0.271,-0.207 0.538,-0.416 0.81,-0.62 0.061,-0.047 0.098,-0.086 0.066,-0.171 -0.059,-0.16 -0.01,-0.302 0.118,-0.405 0.065,-0.053 0.075,-0.101 0.062,-0.177 -0.076,-0.485 -0.145,-0.972 -0.222,-1.456 -0.01,-0.064 0.015,-0.166 -0.105,-0.167 -0.104,0 -0.094,0.089 -0.113,0.148 -0.28,0.901 -0.554,1.803 -0.841,2.703 -0.043,0.134 0.022,0.167 0.117,0.206 m 1.448,-15.345 c -0.012,-0.013 -0.023,-0.025 -0.035,-0.036 0.012,0.011 0.023,0.023 0.035,0.036 m 0.118,0.004 h -10e-4 c -0.063,0.25 -0.233,0.387 -0.483,0.401 -0.115,0.007 -0.144,0.052 -0.173,0.146 -0.22,0.714 -0.446,1.427 -0.665,2.142 -0.02,0.061 -0.099,0.142 0.007,0.196 0.097,0.051 0.162,0.163 0.313,0.092 0.491,-0.227 0.989,-0.436 1.484,-0.652 1.204,-0.525 2.409,-1.049 3.612,-1.575 0.073,-0.031 0.177,-0.033 0.157,-0.169 -0.02,-0.14 -0.128,-0.103 -0.202,-0.113 -0.38,-0.053 -0.761,-0.096 -1.141,-0.143 -0.054,-0.008 -0.109,-0.015 -0.163,-0.023 l -0.014,-0.004 -0.014,0.002 c -0.618,-0.069 -1.237,-0.137 -1.855,-0.206 -0.288,-0.032 -0.575,-0.063 -0.863,-0.094 z m 4.335,0.806 h -0.001 c -0.244,0.039 -0.455,0.167 -0.677,0.264 -1.488,0.642 -2.97,1.296 -4.459,1.935 -0.183,0.079 -0.283,0.154 -0.209,0.359 0.011,0.035 0.016,0.072 0.024,0.109 l -0.008,0.01 0.01,-0.01 c 0.766,0.317 1.533,0.631 2.298,0.95 1.3,0.541 2.599,1.08 3.893,1.633 0.178,0.076 0.254,-0.051 0.369,-0.099 0.109,-0.045 0.038,-0.145 0.026,-0.216 -0.238,-1.503 -0.481,-3.005 -0.717,-4.508 -0.018,-0.117 -0.048,-0.171 -0.179,-0.177 -0.164,-0.007 -0.296,-0.094 -0.371,-0.25 z M -4.78,6.562 C -4.715,6.441 -4.738,6.369 -4.836,6.293 -4.912,6.233 -4.935,6.073 -5.03,6.096 -5.098,6.111 -5.139,6.252 -5.185,6.34 -5.76,7.423 -6.334,8.507 -6.905,9.592 -6.93,9.637 -6.988,9.68 -6.951,9.746 L -6.953,9.748 -6.956,9.751 C -6.963,9.748 -6.97,9.746 -6.977,9.744 V 9.77 c 0.007,-0.006 0.014,-0.013 0.021,-0.019 0.002,0 0.003,0.001 0.005,0.001 -0.001,-0.002 10e-4,-0.004 0,-0.006 L -5.252,7.83 C -5.089,7.646 -4.93,7.46 -4.763,7.28 -4.689,7.201 -4.662,7.144 -4.739,7.042 -4.85,6.898 -4.869,6.722 -4.78,6.562 m 0.396,6.134 c 0.013,10e-4 0.026,10e-4 0.038,0.002 0.042,-0.006 0.085,-0.012 0.127,-0.018 -0.191,-0.035 -0.356,-0.106 -0.471,-0.273 -0.032,-0.045 -0.096,-0.013 -0.143,-0.006 -0.356,0.065 -0.713,0.131 -1.085,0.201 0.09,0.076 0.192,0.014 0.272,0.053 l 0.007,0.002 c 0.046,10e-4 0.091,0.003 0.137,0.005 l 0.017,-0.003 0.008,0.015 c 0,0 0.008,0.003 0.007,0.004 0.035,-0.046 0.077,-0.019 0.118,-0.009 0.045,-0.022 0.09,-0.015 0.136,-0.003 0.038,10e-4 0.075,0.002 0.113,0.003 0.241,-0.011 0.48,0.005 0.719,0.027 m 0.506,-1.022 c 1.034,-1.186 2.068,-2.371 3.114,-3.546 0.165,-0.185 0.224,-0.383 0.241,-0.611 0,-0.038 0.001,-0.076 0.001,-0.113 C -0.599,7.197 -0.475,7.071 -0.313,6.961 -0.322,6.944 -0.33,6.928 -0.339,6.911 H -0.981 -1.058 C -1.335,6.91 -1.612,6.908 -1.89,6.907 c -0.217,0 -0.436,0.026 -0.652,-0.016 -0.044,-0.162 0.091,-0.093 0.139,-0.093 0.679,-0.002 1.36,0.004 2.04,0.007 0.074,0 0.151,0.018 0.221,-0.024 L -0.135,6.772 C -0.114,6.744 -0.095,6.716 -0.074,6.688 -0.039,6.623 -0.004,6.559 0.031,6.494 0.042,6.467 0.054,6.439 0.064,6.412 V 6.411 C 0.093,6.301 0.121,6.19 0.149,6.081 0.152,6.043 0.154,6.005 0.156,5.968 0.157,5.918 0.157,5.867 0.158,5.817 L 0.152,5.703 C 0.108,5.608 0.12,5.505 0.115,5.406 0.107,5.249 0.051,5.237 -0.085,5.29 c -0.92,0.356 -1.844,0.707 -2.767,1.058 -0.275,0.105 -0.552,0.207 -0.83,0.306 -0.036,0.013 -0.076,0.006 -0.076,0.059 0,0.058 0.038,0.071 0.087,0.071 0.17,0.002 0.341,0.002 0.511,0.007 0.041,0.002 0.109,-0.023 0.113,0.05 0.006,0.093 -0.074,0.063 -0.122,0.065 C -3.251,6.911 -3.333,6.909 -3.415,6.905 -3.613,6.897 -3.817,6.866 -3.907,7.119 -3.93,7.182 -4.003,7.23 -4.069,7.24 -4.242,7.266 -4.24,7.379 -4.24,7.512 c 0.001,1.341 -0.002,2.681 -0.005,4.023 -0.001,0.09 -0.005,0.157 0.116,0.194 0.11,0.033 0.169,0.041 0.251,-0.055 m 0.013,0.257 c 0.066,0.1 0.133,-0.018 0.198,0.001 0.108,-0.049 0.214,-0.108 0.326,-0.143 0.167,-0.053 0.294,-0.133 0.312,-0.323 0.007,-0.065 0.05,-0.096 0.104,-0.123 0.568,-0.284 0.933,-0.741 1.138,-1.335 L -1.77,9.938 C -1.762,9.91 -1.755,9.884 -1.748,9.857 -1.73,9.714 -1.714,9.57 -1.697,9.429 c -0.071,-0.025 -0.085,0.03 -0.112,0.058 -0.66,0.753 -1.32,1.505 -1.977,2.261 -0.041,0.048 -0.145,0.083 -0.079,0.183 M -1.638,9.339 C -1.56,9.294 -1.482,9.248 -1.404,9.203 -1.268,9.068 -1.131,8.933 -0.993,8.798 -0.977,8.775 -0.96,8.753 -0.942,8.73 L -0.941,8.729 C -0.885,8.636 -0.828,8.543 -0.772,8.45 L -0.771,8.448 C -0.757,8.409 -0.742,8.369 -0.729,8.33 -0.72,8.312 -0.702,8.292 -0.73,8.277 -0.734,8.275 -0.749,8.297 -0.759,8.308 l -0.902,1.005 z m -20.038,3.486 c -0.726,-0.328 -1.454,-0.657 -2.18,-0.986 -0.006,0.013 -0.013,0.025 -0.019,0.038 0.063,0.057 0.125,0.114 0.188,0.171 0.495,0.346 1.02,0.625 1.617,0.752 0.123,0.018 0.246,0.037 0.369,0.054 0.029,0.028 0.061,0.039 0.098,0.016 -0.024,-0.016 -0.048,-0.03 -0.073,-0.045 M 0.186,1.78 V 2.865 C 0.147,2.521 0.109,2.175 0.069,1.831 0.058,1.729 0.076,1.612 -0.036,1.546 -0.052,1.538 -0.067,1.531 -0.083,1.523 -0.208,1.47 -0.408,1.481 -0.449,1.374 -0.494,1.257 -0.321,1.15 -0.242,1.043 -0.1,0.85 -0.036,0.651 -0.085,0.411 -0.124,0.222 -0.135,0.026 -0.162,-0.203 c -0.25,0.217 -0.481,0.416 -0.71,0.615 -0.708,0.614 -1.416,1.229 -2.123,1.843 -0.06,0.052 -0.141,0.094 -0.104,0.197 l 0.001,10e-4 c 0.054,0.046 0.069,0.118 0.056,0.172 -0.041,0.17 0.06,0.228 0.184,0.295 1.016,0.557 2.029,1.118 3.044,1.679 V 4.737 C -0.54,4.336 -1.267,3.938 -1.994,3.54 -2.027,3.509 -2.063,3.499 -2.104,3.528 c 0.026,0.016 0.05,0.032 0.076,0.046 0.686,0.479 1.374,0.956 2.059,1.436 0.072,0.05 0.117,0.041 0.155,0.014 v 7.639 l -13.358,7.712 -13.358,-7.712 v -4.37 c 0.281,0.469 0.65,0.888 1.114,1.249 0.096,0.075 0.148,0.156 0.183,0.271 0.189,0.645 0.535,1.204 0.969,1.711 0.905,0.409 1.811,0.815 2.714,1.226 0.095,0.044 0.157,0.061 0.242,-0.03 0.089,-0.096 0.014,-0.152 -0.021,-0.213 -1.326,-2.333 -2.655,-4.664 -3.983,-6.996 -0.037,-0.064 -0.058,-0.147 -0.162,-0.116 -0.193,0.063 -0.363,0.014 -0.504,-0.124 -0.068,-0.067 -0.12,-0.079 -0.209,-0.036 -0.114,0.055 -0.229,0.107 -0.343,0.16 V 5.271 c 0.106,-0.048 0.212,-0.098 0.317,-0.147 0.051,-0.023 0.111,-0.044 0.074,-0.125 -0.003,-0.08 -0.007,-0.148 -0.123,-0.168 -0.09,-0.015 -0.178,-0.032 -0.268,-0.048 V 4.667 c 0.121,0.021 0.241,0.042 0.361,0.063 0.018,0.003 0.037,-0.005 0.055,-0.008 0.051,-0.163 0.158,-0.27 0.319,-0.323 l 0.003,-0.001 c 0.076,-0.025 0.077,-0.079 0.069,-0.15 -0.123,-1.143 -0.244,-2.286 -0.369,-3.472 -0.093,0.109 -0.165,0.19 -0.232,0.275 -0.069,0.085 -0.138,0.169 -0.206,0.255 V 1.121 c 0.046,-0.057 0.091,-0.112 0.135,-0.169 -0.004,-0.008 -0.01,-0.015 -0.016,-0.021 -0.039,0.024 -0.079,0.049 -0.119,0.075 V 0.859 c 0.114,-0.075 0.228,-0.149 0.342,-0.223 0.057,-0.038 0.045,-0.081 0.02,-0.13 -0.05,-0.093 -0.098,-0.187 -0.153,-0.292 -0.075,0.063 -0.141,0.121 -0.209,0.18 v -3.155 l 13.358,-7.712 5.216,3.011 c -0.017,-0.005 -0.032,-0.009 -0.048,-0.014 -0.101,-0.032 -0.129,0.011 -0.156,0.095 -0.09,0.281 -0.184,0.562 -0.315,0.827 l -0.004,0.009 c -0.067,0.21 -0.169,0.404 -0.269,0.599 -0.065,0.128 -0.102,0.278 -0.222,0.367 -0.234,0.171 -0.432,0.379 -0.627,0.592 -0.042,0.06 -0.085,0.121 -0.127,0.181 -0.047,0.077 -0.092,0.153 -0.139,0.229 -0.007,0.025 -0.013,0.05 -0.02,0.074 0.041,0.167 0.08,0.335 0.123,0.502 0.244,0.949 0.49,1.897 0.736,2.847 0.01,0.042 0.026,0.082 0.05,0.162 0.148,-0.282 0.282,-0.534 0.413,-0.788 0.799,-1.549 1.598,-3.098 2.399,-4.645 l 0.103,0.059 c -0.809,1.566 -1.597,3.092 -2.386,4.618 0.091,0.017 0.109,-0.078 0.146,-0.13 0.9,-1.235 1.797,-2.473 2.694,-3.709 0.01,-0.016 0.022,-0.03 0.032,-0.047 0.044,-0.079 0.176,-0.155 0.119,-0.234 -0.064,-0.088 -0.165,0.023 -0.246,0.055 -0.099,0.037 -0.123,-0.004 -0.136,-0.087 -0.017,-0.12 -0.034,-0.241 -0.053,-0.368 l 0.806,0.465 c -0.019,0.003 -0.037,0.005 -0.056,0.007 -0.088,0.012 -0.16,0.015 -0.163,0.148 -0.028,1.411 -0.065,2.821 -0.099,4.231 0,0.011 0.007,0.021 0.022,0.062 0.081,-0.12 0.153,-0.223 0.223,-0.33 0.653,-1.009 1.306,-2.019 1.962,-3.027 l 0.099,0.058 c -0.186,0.287 -0.373,0.574 -0.559,0.862 -0.543,0.838 -1.083,1.68 -1.633,2.514 -0.086,0.132 -0.063,0.178 0.07,0.24 0.393,0.184 0.78,0.379 1.168,0.569 0.07,0.034 0.129,0.066 0.191,-0.029 0.05,-0.079 0.147,-0.137 0.236,-0.139 0.188,-0.003 0.211,-0.119 0.241,-0.262 0.24,-1.167 0.485,-2.333 0.731,-3.499 l 0.109,0.063 c -0.085,0.403 -0.169,0.806 -0.255,1.208 -0.058,0.276 -0.122,0.552 -0.183,0.827 0.004,0.011 0.002,0.021 -0.006,0.029 -0.098,0.477 -0.196,0.954 -0.29,1.431 -0.018,0.088 -0.062,0.183 0.039,0.253 l 0.002,0.002 c 0.131,0.028 0.203,0.129 0.242,0.24 0.038,0.108 0.098,0.122 0.198,0.116 0.816,-0.05 1.633,-0.099 2.45,-0.143 0.112,-0.006 0.144,-0.029 0.102,-0.143 -0.318,-0.854 -0.632,-1.71 -0.945,-2.566 -0.031,-0.086 -0.086,-0.14 -0.167,-0.163 -0.144,-0.042 -0.18,-0.14 -0.158,-0.275 -0.013,-0.089 -0.045,-0.172 -0.065,-0.259 l 1.763,1.017 v 1.687 c -0.11,0.225 -0.165,0.47 -0.211,0.711 -0.025,0.128 0.095,0.258 0.211,0.357 V 1.716 C 0.182,1.713 0.181,1.71 0.178,1.707 0.181,1.733 0.183,1.755 0.186,1.78" /></g><g
           transform="translate(110.5771,44.6343)"
           id="g144"><path
             id="path146"
             style="fill:#1b1b1a;fill-opacity:1;fill-rule:nonzero;stroke:none"
             d="M 0,0 C 0.003,0.003 0.004,0.006 0.008,0.009 V 0.073 C 0.005,0.048 0.003,0.026 0,0" /></g><g
           transform="translate(84.0049,43.8794)"
           id="g148"><path
             id="path150"
             style="fill:#1b1b1a;fill-opacity:1;fill-rule:nonzero;stroke:none"
             d="M 0,0 C -0.045,0.057 -0.09,0.112 -0.135,0.169 V 0.054 C -0.096,0.028 -0.056,0.003 -0.017,-0.021 -0.011,-0.015 -0.005,-0.008 0,0" /></g><g
           transform="translate(109.6689,51.2046)"
           id="g152"><path
             id="path154"
             style="fill:#1b1b1a;fill-opacity:1;fill-rule:nonzero;stroke:none"
             d="M 0,0 C 0.028,0.015 0.011,0.034 0.002,0.053 -0.008,0.045 -0.019,0.037 -0.028,0.03 -0.019,0.02 -0.004,-0.002 0,0" /></g></g></g></g></svg>